<svg width="16" height="16" viewBox="0 0 16 16" fill="none" xmlns="http://www.w3.org/2000/svg">
<path d="M8 15.0029C6.14348 15.0029 4.36301 14.2654 3.05025 12.9527C1.7375 11.6399 1 9.85945 1 8.00293C1 6.14641 1.7375 4.36594 3.05025 3.05318C4.36301 1.74043 6.14348 1.00293 8 1.00293C9.85652 1.00293 11.637 1.74043 12.9497 3.05318C14.2625 4.36594 15 6.14641 15 8.00293C15 9.85945 14.2625 11.6399 12.9497 12.9527C11.637 14.2654 9.85652 15.0029 8 15.0029ZM8 16.0029C10.1217 16.0029 12.1566 15.1601 13.6569 13.6598C15.1571 12.1595 16 10.1247 16 8.00293C16 5.8812 15.1571 3.84637 13.6569 2.34608C12.1566 0.845785 10.1217 0.00292969 8 0.00292969C5.87827 0.00292969 3.84344 0.845785 2.34315 2.34608C0.842855 3.84637 0 5.8812 0 8.00293C0 10.1247 0.842855 12.1595 2.34315 13.6598C3.84344 15.1601 5.87827 16.0029 8 16.0029Z" fill="#C60004"/>
<path d="M5.25412 5.78893C5.25275 5.82122 5.258 5.85346 5.26955 5.88365C5.2811 5.91384 5.2987 5.94134 5.32127 5.96448C5.34385 5.98761 5.37091 6.00589 5.40081 6.01817C5.43071 6.03046 5.4628 6.0365 5.49512 6.03593H6.32012C6.45812 6.03593 6.56812 5.92293 6.58612 5.78593C6.67612 5.12993 7.12612 4.65193 7.92812 4.65193C8.61412 4.65193 9.24212 4.99493 9.24212 5.81993C9.24212 6.45493 8.86812 6.74693 8.27712 7.19093C7.60412 7.67993 7.07112 8.25093 7.10912 9.17793L7.11212 9.39493C7.11317 9.46054 7.13997 9.5231 7.18674 9.56913C7.23351 9.61515 7.2965 9.64094 7.36212 9.64093H8.17312C8.23942 9.64093 8.30301 9.61459 8.3499 9.56771C8.39678 9.52082 8.42312 9.45723 8.42312 9.39093V9.28593C8.42312 8.56793 8.69612 8.35893 9.43312 7.79993C10.0421 7.33693 10.6771 6.82293 10.6771 5.74393C10.6771 4.23293 9.40112 3.50293 8.00412 3.50293C6.73712 3.50293 5.34912 4.09293 5.25412 5.78893ZM6.81112 11.5519C6.81112 12.0849 7.23612 12.4789 7.82112 12.4789C8.43012 12.4789 8.84912 12.0849 8.84912 11.5519C8.84912 10.9999 8.42912 10.6119 7.82012 10.6119C7.23612 10.6119 6.81112 10.9999 6.81112 11.5519Z" fill="#C60004"/>
</svg>
