<svg width="16" height="16" viewBox="0 0 16 16" fill="none" xmlns="http://www.w3.org/2000/svg">
<g clip-path="url(#clip0_65_12629)">
<path d="M9.11107 2.64526H3.61107C3.4932 2.64526 3.38015 2.69209 3.2968 2.77544C3.21345 2.85879 3.16663 2.97183 3.16663 3.08971V5.74993C3.16663 5.8678 3.21345 5.98085 3.2968 6.0642C3.38015 6.14755 3.4932 6.19438 3.61107 6.19438H9.11107C9.22894 6.19438 9.34199 6.14755 9.42534 6.0642C9.50869 5.98085 9.55551 5.8678 9.55551 5.74993V3.08971C9.55551 2.97183 9.50869 2.85879 9.42534 2.77544C9.34199 2.69209 9.22894 2.64526 9.11107 2.64526ZM8.66663 5.30549H4.05551V3.53415H8.66663V5.30549Z" fill="#C60004"/>
<path d="M14.5886 2.68893L13.5854 1.07704C13.5454 1.01287 13.4898 0.959944 13.4237 0.923276C13.3576 0.886607 13.2832 0.867405 13.2076 0.867486H11.8056C11.6877 0.867486 11.5747 0.914311 11.4913 0.997661C11.408 1.08101 11.3612 1.19406 11.3612 1.31193C11.3612 1.4298 11.408 1.54285 11.4913 1.6262C11.5747 1.70955 11.6877 1.75637 11.8056 1.75637H12.9612L13.4442 2.53249C13.2569 2.58408 13.0817 2.67226 12.9286 2.79193C12.7756 2.91161 12.6478 3.0604 12.5526 3.22973C12.4574 3.39906 12.3967 3.58557 12.3739 3.7785C12.3512 3.97142 12.3668 4.16694 12.4201 4.35377C12.4733 4.5406 12.563 4.71504 12.684 4.86703C12.805 5.01901 12.9549 5.14552 13.125 5.23926C13.2952 5.333 13.4822 5.39211 13.6753 5.41319C13.8684 5.43426 14.0638 5.41688 14.2502 5.36204V10.8954C14.2502 11.0648 14.1829 11.2273 14.063 11.3471C13.9432 11.467 13.7807 11.5343 13.6113 11.5343C13.4418 11.5343 13.2793 11.467 13.1595 11.3471C13.0397 11.2273 12.9724 11.0648 12.9724 10.8954V8.50749C12.9714 7.9665 12.7781 7.4435 12.4269 7.03197C12.0758 6.62045 11.5897 6.34722 11.0556 6.26115V2.46237C11.0551 1.98062 10.8634 1.51875 10.5228 1.1781C10.1821 0.837447 9.72026 0.645822 9.2385 0.645264H3.48383C3.00208 0.645822 2.54021 0.837447 2.19956 1.1781C1.8589 1.51875 1.66728 1.98062 1.66672 2.46237V12.577H1.22228C1.1044 12.577 0.991356 12.6239 0.908007 12.7072C0.824657 12.7906 0.777832 12.9036 0.777832 13.0215V14.9104C0.777832 15.0282 0.824657 15.1413 0.908007 15.2246C0.991356 15.308 1.1044 15.3548 1.22228 15.3548H11.5001C11.6179 15.3548 11.731 15.308 11.8143 15.2246C11.8977 15.1413 11.9445 15.0282 11.9445 14.9104V13.0215C11.9445 12.9036 11.8977 12.7906 11.8143 12.7072C11.731 12.6239 11.6179 12.577 11.5001 12.577H11.0556V7.16793C11.3502 7.24748 11.6104 7.42173 11.7961 7.66381C11.9819 7.9059 12.0828 8.20236 12.0834 8.50749V10.8953C12.0834 11.0959 12.1229 11.2946 12.1997 11.4799C12.2765 11.6653 12.389 11.8337 12.5309 11.9756C12.6727 12.1174 12.8412 12.23 13.0265 12.3067C13.2119 12.3835 13.4105 12.423 13.6112 12.423C13.8118 12.423 14.0105 12.3835 14.1958 12.3067C14.3812 12.23 14.5496 12.1174 14.6915 11.9756C14.8333 11.8337 14.9459 11.6653 15.0226 11.4799C15.0994 11.2946 15.1389 11.0959 15.1389 10.8953V4.6286C15.3127 4.29625 15.3525 3.90994 15.2502 3.54914C15.1478 3.18833 14.911 2.88049 14.5886 2.68893ZM2.55528 2.46193C2.55557 2.21584 2.65346 1.97991 2.82747 1.8059C3.00148 1.63189 3.23741 1.534 3.4835 1.53371H9.2385C9.48459 1.534 9.72051 1.63189 9.89453 1.8059C10.0685 1.97991 10.1664 2.21584 10.1667 2.46193V7.64526H2.55561L2.55528 2.46193ZM2.55528 8.53371H10.1664V12.5766H2.55528V8.53371ZM11.0553 14.4655H1.66639V13.4655H11.0553V14.4655ZM14.2497 4.35726C14.1825 4.42604 14.0994 4.47713 14.0076 4.50598C13.9159 4.53482 13.8185 4.54052 13.724 4.52258C13.6295 4.50463 13.541 4.4636 13.4662 4.40313C13.3915 4.34266 13.3328 4.26463 13.2955 4.176C13.2582 4.08737 13.2434 3.99089 13.2525 3.89516C13.2615 3.79943 13.2941 3.70742 13.3473 3.62734C13.4005 3.54725 13.4727 3.48157 13.5575 3.43616C13.6422 3.39074 13.7369 3.367 13.8331 3.36704C13.8812 3.3676 13.929 3.37421 13.9755 3.38671L14.2497 3.82726V4.35726Z" fill="#C60004"/>
</g>
<defs>
<clipPath id="clip0_65_12629">
<rect width="16" height="16" fill="white"/>
</clipPath>
</defs>
</svg>
