<svg width="16" height="16" viewBox="0 0 16 16" fill="none" xmlns="http://www.w3.org/2000/svg">
<path d="M10 1.5C10 1.77586 9.76074 2 9.46626 2H4.53374C4.23926 2 4 1.77586 4 1.5C4 1.22414 4.23926 1 4.53374 1H9.48466C9.76074 1.01724 10 1.24138 10 1.5Z" fill="#C60004"/>
<path d="M0.5 11C0.224138 11 0 10.8006 0 10.5552V6.44478C0 6.19939 0.224138 6 0.5 6C0.775862 6 1 6.19939 1 6.44478V10.5706C1 10.8006 0.775862 11 0.5 11Z" fill="#C60004"/>
<path d="M15.566 4.99583H13.2997V6.10462H12.8014V4.99583C12.8014 4.99583 12.3513 4.99583 11.628 4.97877C10.8886 4.96171 11.0011 4.70583 10.9529 4.07468C10.9047 3.44352 10.31 3 9.77956 3H4.86108C4.31458 3 3.89667 3.49469 3.8806 4.07468C3.86452 4.62054 3.51091 4.85936 2.98048 4.85936C2.45006 4.85936 2 5.33699 2 5.93404V10.1986C2 10.7957 2.41791 11.2221 2.98048 11.2733C3.62342 11.3245 4.00918 11.8021 4.00918 11.8021C4.00918 11.8021 4.52354 12.3992 4.95752 12.7744C5.27899 13.0474 5.66475 12.9962 5.66475 12.9962H12.1745C12.1745 12.9962 12.8335 13.0474 12.8335 12.4333C12.8335 11.8192 12.8175 10.9833 12.8175 10.9833H13.3318V12.1945H15.5821L16 10.3351V6.83813L15.566 4.99583ZM15.0838 9.90863L14.7141 11.4268H14.1033V10.1304H11.9816C11.9816 10.1304 11.9977 11.188 11.9977 11.6998C11.9977 12.0921 11.6602 12.075 11.6602 12.075H6.08266C6.08266 12.075 5.74512 12.1092 5.47187 11.8874C5.10218 11.5804 4.68427 11.0686 4.68427 11.0686C4.68427 11.0686 4.23421 10.5739 3.67164 10.5227C3.17336 10.4886 2.81975 10.1304 2.81975 9.65276L2.7876 6.39461C2.7876 5.91698 3.17336 5.52464 3.6395 5.52464C4.10563 5.52464 4.53961 5.21759 4.55568 4.75701C4.57176 4.29643 4.78071 3.88703 5.24684 3.88703H9.73134C10.1975 3.88703 10.2296 4.09173 10.2618 4.62054C10.31 5.13229 10.2135 5.67816 10.8565 5.67816C11.4994 5.69522 11.9977 5.69522 11.9977 5.69522V6.94048H14.1033V5.69522H14.7141L15.0999 7.02577V9.90863H15.0838Z" fill="#C60004"/>
</svg>
