<svg width="16" height="16" viewBox="0 0 16 16" fill="none" xmlns="http://www.w3.org/2000/svg">
<g clip-path="url(#clip0_66_12657)">
<path fill-rule="evenodd" clip-rule="evenodd" d="M0.00431271 7.59399C-0.054916 9.39868 0.478142 11.2034 1.66272 12.717L2.255 11.7273C1.4258 10.5048 1.0112 9.04938 1.07043 7.59399H0.00431271Z" fill="#C60004"/>
<path fill-rule="evenodd" clip-rule="evenodd" d="M2.43226 2.23804C2.3138 2.29625 2.25457 2.35447 2.19534 2.41268C0.951541 3.69343 0.240797 5.26525 0.0631104 6.89528H1.12923C1.36614 5.55632 1.95843 4.21737 2.96532 3.16949C3.02455 3.11127 3.08378 3.05306 3.143 2.99484L2.43226 2.23804Z" fill="#C60004"/>
<path fill-rule="evenodd" clip-rule="evenodd" d="M7.64442 0.0256348C5.98602 0.0838503 4.32762 0.666006 2.90613 1.7721L3.6761 2.5289C4.86068 1.65567 6.22294 1.13173 7.64442 1.07352V0.0256348Z" fill="#C60004"/>
<path fill-rule="evenodd" clip-rule="evenodd" d="M13.0944 1.77259C11.6729 0.666494 10.0145 0.0843386 8.35608 0.026123V1.074C9.77757 1.13222 11.1398 1.65616 12.3244 2.52939L13.0944 1.77259Z" fill="#C60004"/>
<path fill-rule="evenodd" clip-rule="evenodd" d="M15.9369 6.89516C15.6999 5.20691 14.93 3.51866 13.5677 2.23792L12.7977 2.99472C13.9823 4.10081 14.6338 5.43977 14.8707 6.89516H15.9369Z" fill="#C60004"/>
<path fill-rule="evenodd" clip-rule="evenodd" d="M14.337 12.717C15.5216 11.2034 16.0547 9.39868 15.9954 7.59399H14.9293C14.9886 9.04938 14.574 10.5048 13.7448 11.7273L14.337 12.717Z" fill="#C60004"/>
<path fill-rule="evenodd" clip-rule="evenodd" d="M9.83637 10.9705C10.7248 10.4466 11.1986 9.22407 10.4879 8.46727L5.27576 3.22787C4.56501 2.47107 6.8157 9.45693 7.34876 10.3302C7.82259 11.1452 8.94794 11.4363 9.83637 10.9705ZM8.41488 8.52549C8.05951 8.70013 7.94105 9.16586 8.17796 9.51515C8.35565 9.86444 8.82948 9.98088 9.12562 9.74801C9.481 9.57337 9.59945 9.10764 9.42177 8.75835C9.24408 8.40905 8.77025 8.29262 8.41488 8.52549Z" fill="#C60004"/>
</g>
<defs>
<clipPath id="clip0_66_12657">
<rect width="16" height="16" fill="white"/>
</clipPath>
</defs>
</svg>
