<svg width="16" height="16" viewBox="0 0 16 16" fill="none" xmlns="http://www.w3.org/2000/svg">
<path d="M13.3058 3.00024C12.9075 3.00024 12.5991 3.32149 12.5991 3.707V7.97321H9.03964V3.707C9.03964 3.30864 8.71839 3.00024 8.33289 3.00024C7.93453 3.00024 7.62613 3.32149 7.62613 3.707V7.97321H4.41363V3.707C4.41363 3.30864 4.09237 3.00024 3.70687 3.00024C3.32137 3.00024 3.00012 3.32149 3.00012 3.707V12.5992C3.00012 12.9976 3.32137 13.306 3.70687 13.306C4.09237 13.306 4.41363 12.9847 4.41363 12.5992V9.39956H7.61328V12.5992C7.61328 12.9976 7.93453 13.306 8.32003 13.306C8.71839 13.306 9.02679 12.9847 9.02679 12.5992V9.39956H13.293C13.6913 9.39956 13.9997 9.07831 13.9997 8.69281V3.707C14.0126 3.30864 13.6913 3.00024 13.3058 3.00024Z" fill="#C60004"/>
</svg>
