<svg width="140" height="40" viewBox="0 0 140 40" fill="none" xmlns="http://www.w3.org/2000/svg">
<path d="M13.28 5.1L17.52 19.08H13.72L12.74 15.84H5.22L4.24 19.08H0.44L4.68 5.1H13.28ZM10.42 8.16H7.54L6.22 12.6H11.74L10.42 8.16ZM29.5002 5.02H33.3002L29.0602 19H21.3202L17.0802 5.02H20.8802L24.1802 15.96H26.2002L29.5002 5.02ZM50.4105 5.02V8.08H44.1705V19H40.4305V8.08H34.1905V5.02H50.4105ZM63.4984 5.02C67.3984 5.02 68.6184 6.82 68.6184 10.66V13.58C68.6184 17.56 66.8784 19 62.9784 19H57.7784C53.8784 19 52.1584 17.56 52.1584 13.58V10.66C52.1584 6.82 53.3784 5.02 57.2784 5.02H63.4984ZM64.7784 13.78V10.46C64.7784 8.98 64.2984 8.08 62.9184 8.08H57.8584C56.4784 8.08 55.9984 8.98 55.9984 10.46V13.78C55.9984 15.58 56.5784 15.96 57.8784 15.96H62.8984C64.1984 15.96 64.7784 15.58 64.7784 13.78ZM4.41 37.0166H1.32632V25.4113H4.41V37.0166ZM18.5465 25.4113H23.5202V37H20.4365V28.0971L15.7447 37H14.8328L10.141 28.0971V37H7.05732V25.4113H12.031L15.2805 31.7113L18.5465 25.4113ZM39.4914 27.9479C39.5743 28.3955 39.6075 29.3074 39.6075 29.8711C39.6075 30.4182 39.5743 31.2803 39.508 31.7776C39.2096 33.6842 38.2314 34.48 35.6617 34.48H29.2457V37H26.162V25.4113H35.6617C37.9662 25.4113 39.1267 26.1076 39.4914 27.9479ZM36.4243 30.7497V28.9924C36.4243 28.4121 35.9601 27.9479 35.3799 27.9479H29.2457V31.7942H35.3799C35.9601 31.7942 36.4243 31.33 36.4243 30.7497ZM50.9207 25.4113C54.1536 25.4113 55.1649 26.9034 55.1649 30.0866V32.5071C55.1649 35.8063 53.7225 37 50.4896 37H46.1791C42.9462 37 41.5204 35.8063 41.5204 32.5071V30.0866C41.5204 26.9034 42.5317 25.4113 45.7646 25.4113H50.9207ZM51.9817 32.6729V29.9208C51.9817 28.6939 51.5838 27.9479 50.4399 27.9479H46.2454C45.1015 27.9479 44.7036 28.6939 44.7036 29.9208V32.6729C44.7036 34.165 45.1844 34.48 46.262 34.48H50.4233C51.5009 34.48 51.9817 34.165 51.9817 32.6729ZM70.9016 31.7776C70.7192 32.9713 70.255 33.7339 69.31 34.1318L71.001 37.0166H67.5029L66.0273 34.48H60.6392V37H57.5555V25.4113H67.0552C69.3597 25.4113 70.5202 26.1076 70.885 27.9479C70.9679 28.3955 71.001 29.3074 71.001 29.8711C71.001 30.4182 70.9844 31.2803 70.9016 31.7776ZM60.6392 27.9479V31.7942H66.7734C67.3537 31.7942 67.8179 31.3134 67.8179 30.7497V28.9924C67.8179 28.4121 67.3537 27.9479 66.7734 27.9479H60.6392ZM85.8578 25.4113V27.9479H80.6852V37H77.5849V27.9479H72.4123V25.4113H85.8578Z" fill="#C60004"/>
<path d="M115.48 15.176C119.128 16.808 119.128 20.072 119.128 22.696C119.128 25.608 115.448 26.952 113.784 27.528L100.92 32.136H119.128V37H93.176V29.352L111.032 22.984C113.4 22.088 113.4 19.72 110.488 19.528C110.456 19.528 110.456 19.528 110.424 19.528H93.176V14.632H111.512C113.304 14.632 114.68 14.824 115.48 15.176ZM122.911 17.032L134.239 14.632V37H128.255V20.776L122.911 21.928V17.032Z" fill="#171718"/>
<path fill-rule="evenodd" clip-rule="evenodd" d="M85.0237 6.72201L85.1065 17.8764C85.1116 18.5608 84.5608 19.1116 83.8763 19.1065L72.722 19.0237C72.0375 19.0187 72.7179 18.4689 72.7128 17.7844C72.7077 17.0999 72.0191 16.5399 72.7036 16.545L80.8658 16.6056L71.3801 7.11987L73.1199 5.38014L82.6056 14.8659L82.545 6.70361C82.5399 6.01913 83.0998 6.70771 83.7843 6.71279C84.4688 6.71787 85.0187 6.03752 85.0237 6.72201Z" fill="#171718"/>
<line x1="93" y1="8" x2="134" y2="8" stroke="#C60004" stroke-width="4"/>
</svg>
