<svg width="45" height="45" viewBox="0 0 45 45" fill="none" xmlns="http://www.w3.org/2000/svg">
<path d="M9.4469 22.8028L15.3095 25.0139L17.5949 32.4516C17.6942 32.9541 18.2904 33.0546 18.6879 32.7531L21.9669 30.0394C22.265 29.7379 22.7619 29.7379 23.1593 30.0394L29.0219 34.3613C29.4193 34.6628 30.0155 34.4618 30.1149 33.9592L34.487 12.8524C34.5863 12.3498 34.0895 11.8473 33.5927 12.0483L9.4469 21.4961C8.85071 21.6972 8.85071 22.6017 9.4469 22.8028ZM17.2968 23.9083L28.8231 16.7722C29.0219 16.6717 29.2206 16.9732 29.0219 17.0738L19.5822 26.019C19.2841 26.3206 18.986 26.7226 18.986 27.2251L18.6879 29.6374C18.6879 29.9389 18.1911 30.0394 18.0917 29.6374L16.8993 25.215C16.6012 24.7124 16.8 24.1094 17.2968 23.9083Z" fill="#1D1D21"/>
<rect x="0.5" y="0.50293" width="44" height="44" rx="2.83333" stroke="#1D1D21"/>
</svg>
