<svg width="45" height="45" viewBox="0 0 45 45" fill="none" xmlns="http://www.w3.org/2000/svg">
<path d="M33.3293 13.1592C30.6481 10.4873 27.0732 9.00293 23.2996 9.00293C15.4547 9.00293 9.0993 15.3363 9.0993 23.154C9.0993 25.6279 9.79442 28.1019 10.9861 30.18L9 37.5029L16.547 35.5238C18.6324 36.6123 20.9164 37.2061 23.2996 37.2061C31.1446 37.2061 37.5 30.8727 37.5 23.055C37.4007 19.3936 36.0104 15.8311 33.3293 13.1592ZM30.1516 28.2008C29.8537 28.9925 28.4634 29.7842 27.7683 29.8831C27.1725 29.9821 26.378 29.9821 25.5836 29.7842C25.0871 29.5863 24.392 29.3883 23.5976 28.9925C20.0226 27.5081 17.7387 23.9456 17.5401 23.6488C17.3415 23.4508 16.0505 21.7686 16.0505 19.9873C16.0505 18.2061 16.9442 17.4144 17.2422 17.0186C17.5401 16.6227 17.9373 16.6227 18.2352 16.6227C18.4338 16.6227 18.7317 16.6227 18.9303 16.6227C19.1289 16.6227 19.4268 16.5238 19.7247 17.2165C20.0226 17.9092 20.7178 19.6904 20.8171 19.7894C20.9164 19.9873 20.9164 20.1852 20.8171 20.3831C20.7178 20.5811 20.6185 20.779 20.4199 20.9769C20.2212 21.1748 20.0226 21.4717 19.9233 21.5706C19.7247 21.7686 19.5261 21.9665 19.7247 22.2633C19.9233 22.6592 20.6185 23.7477 21.7108 24.7373C23.101 25.9248 24.1934 26.3206 24.5906 26.5186C24.9878 26.7165 25.1864 26.6175 25.385 26.4196C25.5836 26.2217 26.2787 25.43 26.4774 25.0342C26.676 24.6383 26.9739 24.7373 27.2718 24.8363C27.5697 24.9352 29.3571 25.8258 29.655 26.0238C30.0523 26.2217 30.2509 26.3206 30.3502 26.4196C30.4495 26.7165 30.4495 27.4092 30.1516 28.2008Z" fill="#1D1D21"/>
<rect x="0.5" y="0.50293" width="44" height="44" rx="2.83333" stroke="#1D1D21"/>
</svg>
