<svg width="85" height="45" viewBox="0 0 85 45" fill="none" xmlns="http://www.w3.org/2000/svg">
<rect width="85" height="45" fill="white"/>
<g clip-path="url(#clip0_2454_1287)">
<path fill-rule="evenodd" clip-rule="evenodd" d="M68.1396 27.3889V19H78.7073C78.9426 18.9999 79.1757 19.0462 79.3932 19.1362C79.6106 19.2262 79.8082 19.3581 79.9747 19.5245C80.1412 19.6909 80.2733 19.8884 80.3634 20.1058C80.4536 20.3232 80.5 20.5563 80.5001 20.7916V25.5973C80.5001 26.586 79.6971 27.3889 78.7073 27.3889H68.1396ZM77.5502 20.5262H70.1949V25.8627H77.5502C78.0439 25.8627 78.4454 25.4624 78.4454 24.9675V21.4208C78.4454 20.9258 78.0439 20.5262 77.5502 20.5262Z" fill="#171718"/>
<path d="M6.77785 19.0117C6.30644 19.0117 5.85432 19.1989 5.52093 19.5322C5.18754 19.8655 5.00016 20.3176 5 20.789V25.5563C5.00032 26.0275 5.18779 26.4793 5.52118 26.8124C5.85457 27.1454 6.30659 27.3325 6.77785 27.3323H17.2604V25.8187H7.92712C7.43577 25.8187 7.0385 25.4208 7.0385 24.9307V23.8653H16.5096V22.3529H7.0385V21.4133C7.0385 20.922 7.43577 20.5259 7.92712 20.5259H17.2598V19.0117H6.77785ZM26.928 22.133L22.9942 19.089H20.3277L25.5941 23.1648L20.3271 27.2412H22.9948L26.928 24.1973L30.8605 27.2412H33.5282L28.2612 23.1642L33.5282 19.0896H30.8605L26.928 22.133ZM36.5956 20.7956C36.5959 20.3243 36.7833 19.8725 37.1167 19.5394C37.4501 19.2064 37.9021 19.0193 38.3734 19.0195H48.8553V20.5325H39.5215C39.0301 20.5325 38.6329 20.9298 38.6329 21.4205V22.3589H48.1045V23.8725H38.6335V24.9391C38.6335 25.428 39.0313 25.8259 39.5221 25.8259H48.8559V27.3401H38.374C37.9027 27.3402 37.4507 27.1532 37.1173 26.8202C36.7839 26.4871 36.5965 26.0353 36.5961 25.564L36.5956 20.7956ZM54.1709 19.0261C53.9374 19.0259 53.7062 19.0718 53.4905 19.161C53.2748 19.2502 53.0788 19.381 52.9136 19.546C52.7485 19.711 52.6174 19.9069 52.528 20.1225C52.4386 20.3382 52.3925 20.5693 52.3924 20.8027V25.5706C52.3925 25.8041 52.4386 26.0352 52.528 26.2508C52.6174 26.4665 52.7485 26.6624 52.9136 26.8274C53.0788 26.9924 53.2748 27.1232 53.4905 27.2124C53.7062 27.3016 53.9374 27.3474 54.1709 27.3473H64.6528V25.8343H55.3195C54.8282 25.8343 54.4303 25.4358 54.4303 24.9457V23.8803H63.9014V22.3655H54.4303V21.4283C54.4303 20.937 54.8282 20.5397 55.3195 20.5397H64.6528V19.0261H54.1709Z" fill="#171718"/>
</g>
<defs>
<clipPath id="clip0_2454_1287">
<rect width="75.5" height="8.38889" fill="white" transform="translate(5 19)"/>
</clipPath>
</defs>
</svg>
