<svg width="85" height="45" viewBox="0 0 85 45" fill="none" xmlns="http://www.w3.org/2000/svg">
<rect width="85" height="45" fill="white"/>
<path d="M35.8651 14.0156C35.8365 14.0442 33.6351 14.0823 30.9666 14.0918L26.1157 14.1109L26.1825 15.9788C26.2587 18.1136 26.3349 20.0673 26.3826 20.8964C26.4016 21.2109 26.4207 21.5444 26.4207 21.6302C26.4302 21.8494 26.6018 21.8589 30.6807 22.0877C38.1047 22.4975 41.831 22.507 48.3497 22.1353C49.6839 22.0591 51.2563 21.9638 51.8282 21.9352C53.1528 21.8589 53.3911 21.8399 53.4388 21.7922C53.4769 21.7445 53.6961 16.5125 53.7247 15.102L53.7342 14.1776L52.9718 14.1299C51.6947 14.0728 35.9128 13.9584 35.8651 14.0156Z" fill="#171718"/>
<path d="M19.4265 14.2452C17.3584 14.2928 13.0889 14.4834 12.1835 14.5597C10.8302 14.6931 10.2775 14.8837 9.73425 15.4269C9.06714 16.094 8.96231 16.542 9.00996 18.6577C9.02902 19.6297 9.07667 20.4017 9.13385 20.4589C9.19103 20.5065 9.61989 20.5732 10.0869 20.6114C10.5634 20.64 11.3925 20.7067 11.9453 20.7543C13.0984 20.8591 13.3653 20.8782 16.5674 21.1355C17.8825 21.2308 19.3788 21.3452 19.9029 21.3738C20.4271 21.4024 21.3706 21.4691 21.9996 21.5167C22.6286 21.5739 23.5054 21.6311 23.9533 21.6692C24.4012 21.6978 24.9254 21.7359 25.1255 21.755L25.4781 21.7836V21.3452C25.4781 21.0974 25.4114 19.563 25.3352 17.9429C25.2589 16.3132 25.1922 14.8075 25.1922 14.5787V14.1689L22.7906 14.1975C21.4659 14.2166 19.9506 14.2357 19.4265 14.2452Z" fill="#171718"/>
<path d="M54.554 17.4754C54.4873 19.3052 54.4206 20.9921 54.4015 21.2208C54.3824 21.4591 54.3824 21.6687 54.4015 21.7069C54.4206 21.7355 54.8304 21.7355 55.3259 21.6973C55.812 21.6592 56.6602 21.602 57.2129 21.5734C57.7657 21.5353 58.4328 21.4876 58.6901 21.4686C58.9569 21.4495 59.5097 21.4114 59.929 21.3828C61.0631 21.3066 66.7052 20.8587 68.8872 20.6776L70.7935 20.5156L70.8504 19.9438C70.9652 18.7906 70.8794 16.7321 70.698 16.2365C70.4791 15.6266 69.9453 15.1024 69.2972 14.8642C68.3824 14.5211 65.1897 14.3305 58.347 14.2161L54.6779 14.1494L54.554 17.4754Z" fill="#171718"/>
<path d="M9.22882 21.8219C9.48614 23.4897 9.89594 24.6333 10.5154 25.4529C11.659 26.9587 13.7175 27.9689 17.6058 28.9028C20.1886 29.5223 26.1259 30.685 26.183 30.5801C26.2021 30.5516 26.1449 29.6176 26.0496 28.5216C25.9543 27.4161 25.8018 25.6626 25.7161 24.6143C25.6303 23.5659 25.554 22.7082 25.5445 22.6987C25.535 22.6891 24.1531 22.5939 22.4758 22.4795C20.7985 22.3651 19.2164 22.2508 18.9496 22.2317C18.6923 22.2127 18.1491 22.165 17.7583 22.1364C17.3676 22.1078 16.8053 22.0697 16.5194 22.0411C16.2335 22.0125 15.7189 21.9744 15.3758 21.9458C12.5167 21.7361 9.74345 21.5074 9.48614 21.4598L9.16211 21.4121L9.22882 21.8219Z" fill="#171718"/>
<path d="M68.6023 21.6116C67.5539 21.7069 66.3151 21.8117 65.8386 21.8499C65.3715 21.8785 64.8092 21.9261 64.5996 21.9452C64.3899 21.9642 63.8562 22.0024 63.4083 22.0404C62.9604 22.069 62.3885 22.1167 62.1217 22.1358C61.5309 22.1929 61.1306 22.2215 57.4043 22.4788C55.7555 22.5932 54.3832 22.6981 54.3737 22.7171C54.3356 22.7457 53.6875 29.9219 53.6875 30.3412V30.6367L55.3839 30.3317C56.3178 30.1602 58.1476 29.798 59.4533 29.5217C64.9427 28.378 67.1059 27.5965 68.6119 26.2433C69.7172 25.2426 70.1845 24.3277 70.5466 22.4408C70.7087 21.583 70.7087 21.4019 70.5654 21.4305C70.537 21.4401 69.6506 21.5258 68.6023 21.6116Z" fill="#171718"/>
<path d="M26.5552 23.6312C26.6315 24.832 27.0889 30.1594 27.1461 30.5311L27.1938 30.8169L28.5089 31.0362C30.6056 31.3792 34.0555 31.8748 35.9615 32.1035C38.2488 32.3799 41.4414 32.399 43.538 32.1607C46.702 31.789 52.525 30.9027 52.6584 30.7693C52.687 30.7407 52.7442 30.4739 52.7728 30.188C52.83 29.6257 52.83 29.6066 53.1159 26.1376C53.2207 24.8796 53.335 23.6026 53.3636 23.2881L53.4208 22.7354L52.3916 22.802C51.8197 22.8402 51.1622 22.8783 50.9239 22.8974C50.6856 22.9164 49.9423 22.9545 49.2561 22.9927C48.5795 23.0308 47.8552 23.0689 47.6551 23.088C45.0628 23.3262 35.5041 23.3262 32.1971 23.088C31.9398 23.0689 31.225 23.0308 30.6246 22.9927C30.0242 22.9641 29.2713 22.9164 28.9568 22.8974C28.6423 22.8783 27.9562 22.8306 27.4415 22.802L26.498 22.7354L26.5552 23.6312Z" fill="#171718"/>
</svg>
