<svg width="85" height="45" viewBox="0 0 85 45" fill="none" xmlns="http://www.w3.org/2000/svg">
<rect width="85" height="45" fill="white"/>
<path d="M35.7008 34.3125C34.1083 33.0259 32.8115 31.3169 31.9382 29.4694C31.532 28.6098 31.265 27.7399 31.2033 26.8114C30.783 20.4937 30.362 14.168 29.9405 7.83427C29.9401 7.8287 29.9417 7.8232 29.9449 7.81872C29.9482 7.81423 29.9528 7.81105 29.9581 7.80973C35.0912 6.45808 40.4213 5.90937 45.7282 6.22053C49.1286 6.41996 52.5131 6.98845 55.7812 7.96221C55.7863 7.96372 55.7908 7.96694 55.7938 7.97136C55.7969 7.97577 55.7984 7.98112 55.7981 7.98652C55.3662 14.3188 54.9348 20.6437 54.5038 26.9613C54.4971 27.0594 54.4811 27.183 54.4557 27.332C54.3578 27.9062 54.1697 28.4823 53.9499 29.0203C53.1779 30.91 51.9853 32.6528 50.4576 33.9937C50.074 34.3306 49.6971 34.6809 49.3022 35.0035C48.4083 35.7337 47.4571 36.394 46.4486 36.9844C45.3116 37.6502 44.1852 38.2735 43.0692 38.8542C43.0661 38.8559 43.0626 38.8568 43.0591 38.8569C43.0555 38.8569 43.052 38.8562 43.0488 38.8547C40.419 37.6596 37.9696 36.1456 35.7008 34.3125ZM35.6463 32.1165C36.068 32.5581 36.5617 33.0062 37.1274 33.4608C38.1717 34.2998 39.1942 35.0411 40.1949 35.6847C41.0828 36.2553 42.0091 36.7826 42.988 37.1726C42.9911 37.1738 42.9944 37.1743 42.9977 37.1742C43.001 37.174 43.0043 37.1732 43.0072 37.1717C45.2277 36.0245 47.2906 34.6385 49.1958 33.0135C49.3278 32.9009 49.4451 32.796 49.5478 32.6988C50.823 31.4911 51.8773 30.0282 52.5331 28.3806C52.7682 27.7903 52.922 27.1898 52.9945 26.5789C53.0069 26.4758 53.0204 26.3176 53.0351 26.1043C53.4188 20.532 53.8026 14.9612 54.1866 9.39177C54.187 9.3864 54.1855 9.38108 54.1825 9.37667C54.1795 9.37226 54.1752 9.36901 54.1702 9.36747C51.4157 8.48686 48.5564 7.96865 45.6767 7.76827C40.9311 7.43828 36.1391 7.91671 31.5491 9.13564C31.5438 9.13707 31.5392 9.14033 31.536 9.14485C31.5329 9.14938 31.5314 9.15488 31.5318 9.16042C31.9273 14.8599 32.3216 20.5376 32.7145 26.1936C32.7448 26.6289 32.8044 27.0339 32.9131 27.438C33.3825 29.1842 34.4117 30.8239 35.6463 32.1165Z" fill="#171718"/>
<path d="M35.8228 31.5467C34.3804 30.0297 33.394 28.1548 33.2416 26.0271C32.8501 20.5622 32.4595 15.0972 32.0699 9.632C32.0695 9.62643 32.071 9.6209 32.0743 9.61637C32.0775 9.61184 32.0822 9.60861 32.0875 9.60722C37.2659 8.23199 42.7303 7.82218 48.0482 8.53529C49.965 8.7923 51.8404 9.21283 53.6744 9.79688C53.6795 9.79843 53.6838 9.80167 53.6868 9.80608C53.6898 9.81049 53.6912 9.81582 53.6909 9.82118C53.3114 15.1242 52.9337 20.4025 52.5577 25.6562C52.5399 25.9067 52.5277 26.065 52.5213 26.1312C52.4048 27.3543 52.0329 28.5012 51.4055 29.572C50.76 30.6737 49.8992 31.7063 48.921 32.5588C48.8598 32.6122 48.7396 32.7136 48.5604 32.8633C46.8615 34.2819 44.9901 35.5735 43.0121 36.5599C43.0065 36.5626 43.0002 36.5631 42.9945 36.5613C42.6791 36.4577 42.373 36.3337 42.0764 36.1891C41.2757 35.7989 40.5154 35.3247 39.7833 34.8161C38.6526 34.0303 37.5909 33.1956 36.5981 32.3122C36.3377 32.0806 36.0663 31.8025 35.8228 31.5467ZM42.9851 11.5507C46.3346 11.5817 49.6825 12.0477 52.8949 13.0215C52.8982 13.0225 52.9017 13.0227 52.9052 13.0222C52.9086 13.0216 52.9119 13.0203 52.9147 13.0183C52.9176 13.0164 52.92 13.0138 52.9218 13.0107C52.9236 13.0077 52.9246 13.0043 52.9249 13.0008L53.1774 10.1678C53.1778 10.1624 53.1764 10.1569 53.1734 10.1524C53.1703 10.1478 53.1659 10.1444 53.1607 10.1428C50.5259 9.33108 47.79 8.86505 45.0427 8.70231C40.8381 8.45325 36.6993 8.86044 32.6264 9.92387C32.621 9.92526 32.6163 9.92853 32.6131 9.93311C32.6098 9.93769 32.6083 9.94328 32.6088 9.94889L32.8375 12.7361C32.8377 12.7395 32.8387 12.7429 32.8404 12.7459C32.8421 12.7489 32.8444 12.7515 32.8472 12.7535C32.85 12.7555 32.8531 12.7569 32.8565 12.7575C32.8598 12.7582 32.8633 12.7581 32.8666 12.7573C36.1877 11.9211 39.5605 11.5189 42.9851 11.5507ZM36.1642 19.9382C36.1968 19.9339 36.2044 19.9459 36.1872 19.9744C35.9648 20.3388 35.823 20.7341 35.762 21.1604C35.7518 21.2311 35.7462 21.3011 35.7451 21.3703C35.7446 21.402 35.757 21.4085 35.7822 21.3901C35.9088 21.2975 36.0408 21.2133 36.1781 21.1376C36.1811 21.1359 36.1838 21.1335 36.1859 21.1307C36.1879 21.1278 36.1894 21.1246 36.19 21.1211C36.2835 20.6134 36.4875 20.1076 36.9719 19.8774C37.0255 19.8522 37.0818 19.8355 37.141 19.8274C37.1811 19.822 37.1881 19.8349 37.1621 19.8662C36.9287 20.1483 36.7765 20.4711 36.7054 20.8345C36.7046 20.8385 36.7048 20.8426 36.7061 20.8465C36.7073 20.8504 36.7095 20.8539 36.7125 20.8566C36.7154 20.8594 36.719 20.8613 36.7229 20.8623C36.7269 20.8632 36.7309 20.8631 36.7348 20.8619L37.0715 20.7647C37.0751 20.7637 37.0783 20.7618 37.081 20.7591C37.0837 20.7565 37.0858 20.7533 37.087 20.7497C37.2201 20.3742 37.423 20.058 37.7947 19.8731C37.8479 19.8466 37.9037 19.8279 37.9621 19.8169C38.002 19.8094 38.0097 19.8221 37.9851 19.8548C37.9039 19.9636 37.8301 20.0795 37.7637 20.2024C37.6887 20.3414 37.6361 20.4885 37.6057 20.6439C37.605 20.6474 37.6051 20.6511 37.606 20.6546C37.607 20.6581 37.6086 20.6613 37.611 20.664C37.6133 20.6668 37.6162 20.6689 37.6195 20.6703C37.6228 20.6718 37.6263 20.6724 37.6299 20.6722L37.9696 20.6551C37.9751 20.6549 37.9803 20.6527 37.9844 20.6489C38.0196 20.6155 38.0563 20.5824 38.0882 20.5443C38.2855 20.3079 38.5243 20.1261 38.8048 19.9987C38.809 19.9968 38.8125 19.9937 38.8149 19.9899C38.8174 19.986 38.8187 19.9816 38.8187 19.977V18.3394C38.8187 18.3338 38.8167 18.3283 38.8131 18.324C38.8095 18.3197 38.8045 18.3168 38.799 18.3159C38.3366 18.2365 37.9325 18.3099 37.4439 18.4512C36.8181 18.632 36.1419 18.8717 35.5903 19.2274C35.5872 19.2294 35.5845 19.2322 35.5826 19.2354C35.5807 19.2387 35.5797 19.2424 35.5795 19.2463C35.5744 19.3509 35.5687 19.4814 35.5262 19.5708C35.4659 19.698 35.3065 19.8381 35.1576 19.764C35.0859 19.7283 35.0144 19.6919 34.943 19.6549C34.9397 19.6532 34.9361 19.6523 34.9324 19.6523C34.9287 19.6523 34.9251 19.6532 34.9218 19.6549C34.7662 19.7345 34.5081 19.733 34.4156 19.5558C34.3254 19.3829 34.3517 19.2289 34.4943 19.0935C34.5858 19.0066 34.5703 18.8977 34.6201 18.804C34.7528 18.5529 34.9751 18.6027 35.2013 18.7154C35.2068 18.7182 35.2132 18.7186 35.2191 18.7166C35.2694 18.6998 35.2997 18.6586 35.3102 18.593C35.3973 18.0442 35.5302 17.6025 35.8435 17.1586C36.0583 16.8546 36.299 16.6592 36.6467 16.5618C36.7169 16.5422 36.7796 16.5322 36.8348 16.5318C36.8752 16.5314 36.8806 16.5452 36.851 16.573C36.6364 16.7757 36.4516 16.9592 36.3042 17.2268C36.1431 17.5192 36.026 17.8231 35.9529 18.1386C35.9405 18.1918 35.9387 18.2432 35.9475 18.2927C35.9481 18.2962 35.9494 18.2994 35.9513 18.3022C35.9533 18.3051 35.9558 18.3074 35.9588 18.3092C35.9617 18.3109 35.965 18.312 35.9684 18.3122C35.9719 18.3125 35.9753 18.3121 35.9785 18.3109L36.5596 18.0962C36.5627 18.0951 36.5655 18.0933 36.5679 18.091C36.5702 18.0887 36.5721 18.0859 36.5732 18.0828C36.6013 18.0145 36.6276 17.94 36.6524 17.8591C36.8242 17.2956 37.1905 16.8484 37.7245 16.6097C37.8126 16.5703 37.9042 16.5454 37.9992 16.5351C38.0363 16.531 38.0413 16.5419 38.0142 16.5677C37.9019 16.6751 37.795 16.7889 37.6937 16.9092C37.5303 17.1034 37.4048 17.3401 37.3171 17.6192C37.2947 17.6908 37.2779 17.7636 37.2666 17.8377C37.266 17.8416 37.2664 17.8457 37.2678 17.8494C37.2691 17.8532 37.2714 17.8566 37.2744 17.8592C37.2774 17.8618 37.2809 17.8637 37.2848 17.8645C37.2886 17.8654 37.2927 17.8652 37.2964 17.8641C37.4384 17.8219 37.5828 17.7905 37.7297 17.77C37.7832 17.7624 37.8356 17.7331 37.8569 17.6876C38.0718 17.2311 38.4646 16.7498 38.9932 16.7438C39.0126 16.7436 39.0406 16.7629 39.0176 16.781C38.7466 16.9956 38.5517 17.2776 38.4329 17.627C38.4201 17.665 38.4329 17.6848 38.4714 17.6864C38.5844 17.6911 38.6961 17.6866 38.8065 17.6728C38.8123 17.672 38.8176 17.6691 38.8214 17.6646C38.8252 17.6602 38.8273 17.6544 38.8271 17.6485L38.8201 17.314C38.82 17.3108 38.8205 17.3076 38.8217 17.3047C38.8228 17.3017 38.8245 17.299 38.8267 17.2967C38.8289 17.2945 38.8315 17.2926 38.8344 17.2914C38.8373 17.2901 38.8404 17.2895 38.8436 17.2894L42.6817 17.2851C42.688 17.2851 42.6939 17.2826 42.6983 17.2782C42.7027 17.2737 42.7052 17.2676 42.7052 17.2613L42.7045 11.9129C42.7045 11.9071 42.7025 11.9016 42.6988 11.8972C42.695 11.8929 42.6899 11.8901 42.6843 11.8893C42.6331 11.8821 42.558 11.8931 42.5249 11.8931C39.235 11.8862 36.013 12.2905 32.8715 13.1709C32.8663 13.1724 32.8617 13.1756 32.8586 13.1801C32.8554 13.1847 32.854 13.1901 32.8544 13.1957L33.5759 23.2881C33.5764 23.2941 33.5791 23.2998 33.5834 23.3039C33.5878 23.308 33.5935 23.3103 33.5994 23.3103H38.6238C38.6724 23.3103 38.7398 23.3274 38.8027 23.306C38.8074 23.3044 38.8114 23.3013 38.8143 23.2973C38.8172 23.2932 38.8187 23.2883 38.8187 23.2833V21.3453C38.8187 21.3408 38.8175 21.3364 38.8152 21.3326C38.8128 21.3289 38.8095 21.3258 38.8055 21.3239C38.3975 21.1221 37.7935 21.1323 37.369 21.2052C37.0426 21.261 36.7181 21.417 36.4253 21.5826C36.1302 21.7494 35.8822 21.997 35.6033 22.1997C35.483 22.2872 35.5309 22.4373 35.503 22.5297C35.4565 22.6824 35.3046 22.7723 35.1475 22.7291C35.037 22.6988 34.9244 22.6965 34.8096 22.7222C34.8053 22.7232 34.8008 22.7228 34.7965 22.7213C34.6609 22.6711 34.5932 22.576 34.5934 22.4361C34.5936 22.3291 34.6645 22.2364 34.6704 22.117C34.683 21.8588 34.8667 21.7261 35.1071 21.84C35.1101 21.8414 35.1134 21.8421 35.1167 21.8422C35.1201 21.8422 35.1233 21.8415 35.1264 21.8402C35.1775 21.8178 35.2229 21.784 35.2623 21.7389C35.2644 21.7365 35.266 21.7337 35.267 21.7307C35.268 21.7277 35.2684 21.7245 35.2682 21.7213C35.2356 21.2346 35.3427 20.789 35.5894 20.3844C35.7007 20.2022 35.8965 19.9994 36.1025 19.9496C36.1231 19.9447 36.1437 19.9409 36.1642 19.9382ZM43.2044 14.407C43.1996 14.407 43.195 14.4089 43.1916 14.4123C43.1882 14.4158 43.1863 14.4204 43.1863 14.4253L43.195 17.2773C43.195 17.2821 43.1969 17.2868 43.2003 17.2903C43.2037 17.2937 43.2083 17.2956 43.2131 17.2956L52.622 17.2868C52.6266 17.2868 52.6309 17.285 52.6342 17.2819C52.6375 17.2787 52.6395 17.2745 52.6399 17.2699L52.8536 14.4179C52.8538 14.4154 52.8534 14.4129 52.8526 14.4105C52.8518 14.4081 52.8505 14.4059 52.8488 14.404C52.8471 14.4022 52.845 14.4007 52.8427 14.3997C52.8404 14.3987 52.838 14.3981 52.8355 14.3982L43.2044 14.407ZM39.3357 24.7153C39.5715 25.9561 40.3945 26.9461 41.5648 27.3742C43.4378 28.0597 45.6699 27.2554 46.3424 25.2592C46.4925 24.8135 46.5676 24.3524 46.5676 23.8759C46.568 21.8415 46.5679 19.8069 46.5671 17.7721C46.5671 17.7658 46.5646 17.7598 46.5602 17.7553C46.5558 17.7508 46.5498 17.7483 46.5436 17.7483C46.4901 17.7483 46.4367 17.7473 46.3835 17.7452C46.3047 17.7424 46.2434 17.7409 46.1996 17.7409H39.2709C39.2647 17.7409 39.2587 17.7434 39.2543 17.7479C39.2499 17.7524 39.2475 17.7584 39.2475 17.7648C39.247 19.753 39.2471 21.7359 39.2477 23.7136C39.2479 24.0841 39.2712 24.3762 39.3357 24.7153ZM38.4879 20.7311C38.5896 20.7686 38.6871 20.815 38.7804 20.8702C38.8042 20.8844 38.816 20.8775 38.8159 20.8495L38.8128 20.3506C38.8127 20.3139 38.7994 20.3083 38.7731 20.3337C38.6604 20.4425 38.5615 20.5631 38.4763 20.6956C38.4744 20.6986 38.4732 20.7021 38.4727 20.7056C38.4723 20.7092 38.4726 20.7128 38.4737 20.7162C38.4748 20.7196 38.4767 20.7227 38.4791 20.7253C38.4816 20.7279 38.4845 20.7299 38.4879 20.7311ZM49.0344 20.3713C48.3737 20.3693 47.7136 20.3707 47.0543 20.3756C47.0481 20.3757 47.0422 20.3782 47.0379 20.3827C47.0335 20.3871 47.0311 20.3932 47.0311 20.3994V23.2447C47.0311 23.2511 47.0335 23.2571 47.0379 23.2616C47.0423 23.266 47.0483 23.2686 47.0545 23.2686H52.1747C52.1806 23.2686 52.1862 23.2663 52.1905 23.2623C52.1949 23.2582 52.1975 23.2526 52.198 23.2466L52.4243 20.3949C52.4246 20.3916 52.4241 20.3883 52.423 20.3852C52.422 20.3821 52.4203 20.3793 52.4181 20.3769C52.4159 20.3745 52.4132 20.3726 52.4102 20.3712C52.4073 20.3699 52.4041 20.3692 52.4008 20.3692C51.4347 20.3655 50.469 20.3662 49.5038 20.3711C49.3524 20.3717 49.196 20.3718 49.0344 20.3713ZM47.4969 26.4331C47.5368 26.4423 47.5389 26.457 47.503 26.4772C47.4129 26.5277 47.3282 26.5862 47.249 26.6528C47.0916 26.785 46.9464 26.9294 46.8132 27.0862C46.6804 27.2427 46.5854 27.4198 46.5281 27.6178C46.527 27.6217 46.5269 27.6259 46.5278 27.6299C46.5287 27.6339 46.5306 27.6375 46.5334 27.6406C46.5361 27.6436 46.5396 27.6458 46.5434 27.6471C46.5473 27.6484 46.5514 27.6486 46.5553 27.6478C46.7986 27.5968 47.0433 27.5551 47.2896 27.5227C47.2932 27.5222 47.2967 27.5208 47.2997 27.5187C47.3027 27.5166 47.3052 27.5138 47.307 27.5105C47.4908 27.1717 47.7644 26.8844 48.1189 26.7317C48.2362 26.681 48.3567 26.658 48.4805 26.6628C48.5262 26.6646 48.5305 26.6789 48.4932 26.7059C48.2593 26.8759 48.0765 27.091 47.9447 27.3511C47.9273 27.3854 47.914 27.4175 47.9048 27.4472C47.9037 27.4506 47.9034 27.4543 47.904 27.4579C47.9045 27.4616 47.9059 27.465 47.9079 27.468C47.91 27.471 47.9127 27.4735 47.9159 27.4752C47.919 27.477 47.9225 27.478 47.9261 27.4781L48.3922 27.4974C48.3971 27.4976 48.402 27.4962 48.4061 27.4934C48.7468 27.267 49.1006 27.1496 49.4909 27.2468C49.5363 27.2581 49.5768 27.2755 49.6123 27.299C49.6453 27.3207 49.6422 27.3324 49.6029 27.334C49.4598 27.3395 49.3229 27.3723 49.1922 27.4321C49.1149 27.4674 49.0475 27.5162 48.99 27.5784C48.9875 27.5812 48.9856 27.5845 48.9845 27.5882C48.9835 27.5918 48.9834 27.5956 48.9841 27.5994C48.9848 27.6031 48.9864 27.6066 48.9888 27.6095C48.9911 27.6125 48.9941 27.6148 48.9976 27.6163C49.2626 27.7362 49.4913 27.9033 49.6837 28.1176C49.887 28.3442 49.984 28.5922 49.9922 28.8915C49.9942 28.9679 49.9835 29.0419 49.96 29.1135C49.9464 29.1547 49.9317 29.1551 49.9159 29.1147C49.8379 28.9154 49.7253 28.7423 49.578 28.5956C49.0185 28.0378 48.0518 27.9737 47.3241 28.1145C46.4534 28.283 45.5222 28.5119 44.7811 29.0135C44.7778 29.0157 44.7751 29.0188 44.7733 29.0224C44.7714 29.026 44.7705 29.0299 44.7706 29.034C44.7737 29.1777 44.7154 29.2906 44.5956 29.3725C44.5931 29.3743 44.5903 29.3755 44.5872 29.3761C44.5842 29.3767 44.5811 29.3767 44.578 29.3761C44.4731 29.3554 44.3714 29.3232 44.2667 29.359C44.0709 29.4259 43.836 29.318 43.8229 29.0966C43.8149 28.9627 43.9199 28.8665 43.9187 28.7257C43.9171 28.5146 44.0434 28.3721 44.2592 28.3866C44.2784 28.3879 44.3327 28.4096 44.4221 28.4517C44.4275 28.4543 44.4337 28.4547 44.4393 28.4529C44.5318 28.4227 44.6184 28.3803 44.6992 28.3259C44.704 28.3225 44.7075 28.3174 44.7088 28.3116C44.7566 28.1082 44.7941 27.903 44.8213 27.6959C44.8251 27.6673 44.814 27.6591 44.7882 27.6711C44.2819 27.9095 43.7497 28.0465 43.1915 28.0819C43.1882 28.0821 43.185 28.083 43.1821 28.0846C43.1791 28.0861 43.1766 28.0883 43.1745 28.0909C43.1724 28.0935 43.171 28.0966 43.1701 28.0998C43.1693 28.1031 43.1691 28.1064 43.1697 28.1098C43.1761 28.1477 43.176 28.1859 43.1694 28.2244C43.1483 28.3454 43.1744 28.5977 43.1744 28.7485V35.943C43.1744 35.9471 43.1754 35.9511 43.1774 35.9547C43.1793 35.9583 43.1822 35.9613 43.1856 35.9634C43.1891 35.9655 43.193 35.9667 43.197 35.9669C43.2011 35.967 43.2051 35.9661 43.2086 35.9642C44.0823 35.5012 44.9263 34.9886 45.7408 34.4263C46.7357 33.7396 47.6632 33.051 48.4981 32.3015C49.1392 31.7261 49.7266 31.0982 50.2604 30.4178C51.1916 29.231 51.788 27.8918 51.9618 26.3826C51.9735 26.2802 51.9873 26.122 52.0031 25.908C52.0555 25.1989 52.1062 24.4899 52.1552 23.7808C52.1554 23.7775 52.155 23.7742 52.1539 23.7711C52.1528 23.768 52.151 23.7652 52.1488 23.7628C52.1466 23.7604 52.1439 23.7585 52.1409 23.7572C52.138 23.7559 52.1348 23.7553 52.1315 23.7553C51.5564 23.7595 50.9814 23.7601 50.4064 23.7572C49.2861 23.752 48.1667 23.7501 47.0484 23.7515C47.0422 23.7516 47.0362 23.7541 47.0318 23.7586C47.0274 23.763 47.025 23.7691 47.025 23.7753C47.0242 24.1114 46.9916 24.4442 46.9273 24.7736C46.7249 25.8083 46.2203 26.6537 45.4137 27.3097C45.4095 27.3132 45.4066 27.3181 45.4055 27.3235C45.3592 27.557 45.3282 27.7927 45.3127 28.0307C45.3125 28.0346 45.3132 28.0386 45.3149 28.0422C45.3165 28.0458 45.319 28.049 45.3222 28.0513C45.3254 28.0537 45.329 28.0552 45.3329 28.0558C45.3368 28.0563 45.3408 28.0559 45.3444 28.0545L45.7603 27.8987C45.766 27.8965 45.7707 27.8923 45.7734 27.8867C46.0223 27.3659 46.2635 26.9563 46.7615 26.6354C46.9451 26.5169 47.115 26.4467 47.2713 26.4248C47.3498 26.4137 47.4251 26.4164 47.4969 26.4331ZM42.6099 28.0833C41.4598 28.0702 40.0627 27.3318 39.471 26.3092C39.4689 26.3056 39.466 26.3026 39.4624 26.3005C39.4589 26.2984 39.4549 26.2973 39.4508 26.2973L33.8657 26.2933C33.8625 26.2933 33.8594 26.2939 33.8565 26.2952C33.8536 26.2964 33.8509 26.2982 33.8487 26.3005C33.8465 26.3028 33.8448 26.3055 33.8437 26.3085C33.8426 26.3115 33.8421 26.3146 33.8422 26.3178C33.8535 26.6217 33.9012 26.952 33.9854 27.3087C34.1442 27.9809 34.4067 28.6081 34.773 29.1903C34.7751 29.1936 34.7779 29.1964 34.7814 29.1983C34.7848 29.2002 34.7887 29.2012 34.7927 29.2012H42.6254C42.6285 29.2012 42.6316 29.2006 42.6344 29.1994C42.6373 29.1981 42.6399 29.1964 42.6421 29.1941C42.6443 29.1918 42.646 29.1892 42.6471 29.1862C42.6483 29.1833 42.6489 29.1801 42.6489 29.1769L42.6331 28.1067C42.6331 28.1005 42.6306 28.0946 42.6263 28.0902C42.6219 28.0859 42.616 28.0834 42.6099 28.0833ZM37.3897 32.3274C37.6876 32.5914 37.9894 32.8443 38.2953 33.0861C39.132 33.7471 39.9985 34.3653 40.8949 34.9404C41.4524 35.2983 42.0284 35.6214 42.6228 35.9097C42.6264 35.9114 42.6303 35.9122 42.6342 35.9119C42.6381 35.9117 42.642 35.9105 42.6453 35.9084C42.6486 35.9063 42.6514 35.9033 42.6534 35.8999C42.6553 35.8964 42.6563 35.8925 42.6564 35.8885C42.6637 34.7208 42.6684 33.5534 42.6705 32.386C42.6707 32.2707 42.6662 32.3 42.5716 32.2996C40.8442 32.294 39.1221 32.2894 37.4052 32.2857C37.3634 32.2856 37.3582 32.2995 37.3897 32.3274Z" fill="#171718"/>
<path d="M39.3108 10.4635L39.3376 11.1528C39.3378 11.1589 39.3358 11.1648 39.3319 11.1694C39.328 11.174 39.3224 11.1769 39.3164 11.1776L38.8903 11.22C38.8871 11.2203 38.8839 11.2199 38.8809 11.219C38.8779 11.218 38.8751 11.2164 38.8727 11.2143C38.8703 11.2122 38.8684 11.2097 38.867 11.2068C38.8656 11.2039 38.8648 11.2008 38.8647 11.1976L38.7663 9.30606C38.766 9.29981 38.768 9.29369 38.7721 9.28901C38.7761 9.28433 38.7818 9.28146 38.7879 9.28104C39.4729 9.22894 40.1538 9.1774 40.8307 9.12641C41.0481 9.10997 41.2167 9.12188 41.3327 9.30629C41.4285 9.4583 41.4236 9.71324 41.3841 9.89075C41.3699 9.95555 41.3366 10.015 41.2841 10.0692C41.2819 10.0715 41.2802 10.0742 41.2791 10.0771C41.2779 10.0801 41.2773 10.0832 41.2774 10.0864C41.2775 10.0896 41.2782 10.0927 41.2794 10.0956C41.2807 10.0985 41.2825 10.1011 41.2848 10.1033C41.3665 10.1806 41.4123 10.2685 41.4222 10.367C41.438 10.5249 41.4436 10.7435 41.4389 11.0227C41.4388 11.0288 41.4364 11.0347 41.4322 11.0391C41.428 11.0435 41.4223 11.0461 41.4163 11.0463L40.9939 11.062C40.9908 11.0622 40.9878 11.0617 40.9849 11.0606C40.9821 11.0595 40.9794 11.0579 40.9772 11.0557C40.9749 11.0536 40.9731 11.051 40.9718 11.0482C40.9706 11.0454 40.9698 11.0423 40.9697 11.0392C40.9638 10.8921 40.9607 10.7453 40.9606 10.5989C40.9603 10.4059 40.9068 10.3215 40.7112 10.3358C40.2514 10.369 39.7919 10.4033 39.3326 10.4387C39.3266 10.4392 39.3209 10.442 39.3168 10.4466C39.3128 10.4512 39.3106 10.4573 39.3108 10.4635ZM40.7546 9.82451C40.8014 9.73492 40.7866 9.66051 40.7103 9.60126C40.706 9.59787 40.7007 9.5961 40.6952 9.59626C40.6484 9.59769 40.6017 9.60015 40.555 9.60364C40.1305 9.63557 39.706 9.66765 39.2815 9.6999C39.2753 9.70033 39.2695 9.7032 39.2654 9.70789C39.2613 9.71258 39.2592 9.7187 39.2596 9.72492L39.2725 9.94721C39.2727 9.95034 39.2735 9.95341 39.2749 9.95623C39.2762 9.95905 39.2781 9.96158 39.2805 9.96366C39.2828 9.96574 39.2855 9.96734 39.2885 9.96836C39.2914 9.96938 39.2945 9.9698 39.2977 9.96961L40.652 9.88217C40.702 9.87883 40.7362 9.85961 40.7546 9.82451ZM42.2863 9.82856C42.2885 9.83125 42.2912 9.83341 42.2944 9.83489C42.2975 9.83638 42.3009 9.83714 42.3044 9.83714C42.8502 9.83698 43.3985 9.83714 43.9492 9.83761C44.4737 9.83809 44.4697 10.3813 44.4012 10.7482C44.3601 10.9698 44.1455 11.0444 43.9377 11.0439C43.2264 11.042 42.5151 11.0407 41.8037 11.0399C41.7976 11.0399 41.7916 11.0374 41.7872 11.033C41.7828 11.0286 41.7803 11.0226 41.7803 11.0163L41.7763 10.5712C41.7762 10.5681 41.7768 10.5649 41.778 10.562C41.7792 10.5591 41.7809 10.5565 41.7831 10.5542C41.7853 10.552 41.7879 10.5502 41.7907 10.549C41.7936 10.5478 41.7967 10.5472 41.7998 10.5472C42.4384 10.5456 43.0767 10.5453 43.7146 10.5464C43.8369 10.5467 43.8696 10.3199 43.6834 10.3177C43.2607 10.3131 42.8381 10.3118 42.4154 10.3139C42.2111 10.3148 42.0767 10.3035 42.012 10.2798C41.7251 10.1748 41.7117 9.85524 41.7366 9.58268C41.7627 9.29486 41.908 9.12545 42.2121 9.12379C42.9334 9.12013 43.655 9.12125 44.3768 9.12712C44.3829 9.12718 44.3888 9.12969 44.3931 9.1341C44.3975 9.13851 44.3999 9.14447 44.4 9.15071L44.4054 9.58101C44.4055 9.58414 44.4049 9.58726 44.4038 9.59018C44.4026 9.5931 44.4009 9.59575 44.3987 9.59799C44.3965 9.60023 44.3939 9.60201 44.391 9.60323C44.3881 9.60445 44.385 9.60507 44.3819 9.60507C43.69 9.60475 43.0058 9.60475 42.3292 9.60507C42.2212 9.60507 42.2356 9.76709 42.2863 9.82856ZM44.8691 9.50953C44.9128 9.22624 45.1925 9.18145 45.4259 9.1936C46.0528 9.22616 46.6799 9.29041 47.3071 9.38635C47.3129 9.38717 47.3182 9.39021 47.3219 9.39484C47.3256 9.39948 47.3275 9.40538 47.3271 9.41137L47.2973 9.86644C47.2971 9.86966 47.2962 9.87281 47.2948 9.87568C47.2934 9.87856 47.2914 9.88112 47.2889 9.88319C47.2865 9.88526 47.2837 9.88681 47.2806 9.88774C47.2776 9.88867 47.2744 9.88896 47.2712 9.8886C46.9735 9.85572 46.6762 9.82149 46.3794 9.78591C46.0081 9.74144 45.7128 9.71475 45.4935 9.70586C45.3921 9.70181 45.3277 9.76804 45.3162 9.87168C45.2949 10.062 45.2878 10.2527 45.2949 10.444C45.2979 10.5264 45.3423 10.6008 45.4263 10.611C46.0273 10.6849 46.631 10.7428 47.2374 10.7849C47.2436 10.7854 47.2494 10.7883 47.2535 10.793C47.2576 10.7977 47.2596 10.8039 47.2592 10.8102L47.2332 11.2705C47.2328 11.2768 47.23 11.2827 47.2255 11.2869C47.2209 11.2911 47.2149 11.2932 47.2088 11.2929C46.5717 11.2631 45.9396 11.1678 45.3042 11.1211C45.1241 11.1078 44.9232 11.0773 44.8412 10.8993C44.8155 10.8435 44.8015 10.7443 44.7992 10.6015C44.7928 10.2195 44.8161 9.85548 44.8691 9.50953ZM36.1583 11.5369C36.0446 11.5052 35.9291 11.4127 35.9042 11.2893C35.8167 10.8566 35.7857 10.42 35.811 9.97938C35.8246 9.74231 35.9892 9.64629 36.1984 9.60221C36.7349 9.48896 37.2958 9.40104 37.8811 9.33846C38.0905 9.31582 38.3141 9.38135 38.3573 9.62223C38.4283 10.0196 38.4522 10.4194 38.4289 10.8214C38.4145 11.0685 38.3493 11.2372 38.1008 11.2896C37.5464 11.4065 36.9624 11.4909 36.349 11.5428C36.2622 11.5501 36.1987 11.5482 36.1583 11.5369ZM36.4943 10.1033C36.2574 10.1507 36.2881 10.2531 36.3015 10.4633C36.3151 10.6804 36.3317 10.8298 36.3511 10.9114C36.3656 10.9728 36.3997 11.0017 36.4532 10.9984C36.8211 10.976 37.2468 10.9192 37.7303 10.8278C37.8287 10.8092 37.9144 10.7957 37.9269 10.677C37.9453 10.4977 37.9377 10.2868 37.9038 10.0444C37.8834 9.89837 37.7888 9.916 37.6758 9.9272C37.2792 9.96659 36.8853 10.0253 36.4943 10.1033ZM48.2022 10.2548L49.7512 10.5086C49.753 10.5088 49.7548 10.5087 49.7565 10.5083C49.7582 10.5078 49.7597 10.507 49.7611 10.5058C49.7625 10.5047 49.7636 10.5033 49.7644 10.5017C49.7652 10.5002 49.7657 10.4984 49.7658 10.4966L49.8153 9.77019C49.8155 9.76836 49.8159 9.76657 49.8168 9.76495C49.8176 9.76332 49.8188 9.7619 49.8202 9.76077C49.8216 9.75965 49.8233 9.75884 49.825 9.75841C49.8268 9.75798 49.8286 9.75793 49.8304 9.75827L50.3329 9.85524C50.3359 9.85582 50.3387 9.85753 50.3406 9.86003C50.3425 9.86254 50.3434 9.86567 50.3432 9.86883L50.1854 11.8145C50.1853 11.8163 50.1848 11.818 50.1839 11.8196C50.1831 11.8212 50.1819 11.8226 50.1805 11.8237C50.179 11.8248 50.1774 11.8256 50.1757 11.826C50.1739 11.8264 50.1721 11.8265 50.1704 11.8261L49.6817 11.7344C49.6787 11.7338 49.6759 11.7321 49.674 11.7296C49.6721 11.7271 49.6712 11.724 49.6714 11.7208L49.7261 10.9946C49.7263 10.9914 49.7254 10.9883 49.7234 10.9857C49.7215 10.9832 49.7187 10.9815 49.7156 10.981L48.1874 10.7249C48.1857 10.7246 48.1839 10.7247 48.1822 10.7251C48.1805 10.7255 48.1789 10.7263 48.1775 10.7274C48.1761 10.7285 48.175 10.7299 48.1741 10.7315C48.1733 10.733 48.1728 10.7348 48.1726 10.7366L48.1165 11.4494C48.1164 11.4512 48.1159 11.4529 48.1151 11.4545C48.1142 11.456 48.1131 11.4574 48.1117 11.4585C48.1104 11.4596 48.1088 11.4604 48.1071 11.4608C48.1054 11.4613 48.1037 11.4614 48.102 11.4611L47.6201 11.3873C47.617 11.3868 47.6142 11.3852 47.6122 11.3827C47.6102 11.3802 47.6092 11.3771 47.6093 11.3739L47.7265 9.43519C47.7266 9.43341 47.7271 9.43167 47.7279 9.43009C47.7287 9.4285 47.7298 9.42711 47.7312 9.42598C47.7326 9.42486 47.7342 9.42405 47.7359 9.42358C47.7376 9.42311 47.7393 9.42301 47.7411 9.42328L48.233 9.49666C48.2361 9.49714 48.239 9.4988 48.241 9.50131C48.243 9.50383 48.244 9.50702 48.2438 9.51024L48.1917 10.2412C48.1914 10.2444 48.1924 10.2476 48.1944 10.2501C48.1963 10.2526 48.1991 10.2543 48.2022 10.2548ZM33.6191 11.3963C33.6136 11.3977 33.6088 11.401 33.6055 11.4057C33.6023 11.4104 33.6007 11.4161 33.6012 11.4218L33.6712 12.1452C33.6717 12.1508 33.6703 12.1564 33.6671 12.161C33.6639 12.1656 33.6592 12.169 33.6538 12.1704L33.2211 12.2884C33.2178 12.2893 33.2143 12.2894 33.2109 12.2888C33.2075 12.2882 33.2043 12.2869 33.2015 12.2849C33.1986 12.2829 33.1963 12.2803 33.1946 12.2773C33.1928 12.2742 33.1918 12.2709 33.1915 12.2674L33.0255 10.3275C33.025 10.3218 33.0265 10.3161 33.0297 10.3114C33.033 10.3068 33.0379 10.3035 33.0433 10.3022C33.6424 10.1586 34.2423 10.0154 34.8429 9.87264C34.9534 9.84643 35.0379 9.83777 35.0963 9.84667C35.548 9.91576 35.587 10.7008 35.2665 10.9431C35.22 10.9784 35.1424 11.01 35.0336 11.038C34.561 11.1595 34.0895 11.2789 33.6191 11.3963ZM34.9533 10.612C35.0439 10.5138 35.0411 10.3075 34.865 10.3496C34.4173 10.4568 33.9686 10.5652 33.5191 10.6746C33.5134 10.676 33.5085 10.6794 33.5052 10.6842C33.5019 10.689 33.5005 10.6948 33.5012 10.7006L33.5299 10.9465C33.5302 10.9498 33.5313 10.9531 33.533 10.956C33.5347 10.9589 33.537 10.9614 33.5397 10.9633C33.5425 10.9653 33.5456 10.9666 33.5489 10.9672C33.5521 10.9679 33.5555 10.9678 33.5587 10.967L34.9418 10.6189C34.9461 10.6178 34.95 10.6154 34.9533 10.612ZM51.0814 11.6L52.5602 11.9777C52.5648 11.9788 52.5689 11.9817 52.5716 11.9856C52.5743 11.9895 52.5755 11.9943 52.575 11.9991L52.5384 12.4044C52.5381 12.4072 52.5373 12.41 52.5359 12.4125C52.5345 12.415 52.5326 12.4171 52.5303 12.4188C52.528 12.4205 52.5254 12.4216 52.5226 12.4222C52.5198 12.4227 52.517 12.4227 52.5142 12.422L50.524 11.9457C50.5194 11.9446 50.5153 11.9418 50.5125 11.9379C50.5098 11.9339 50.5085 11.9291 50.509 11.9243L50.682 9.96365C50.6823 9.96077 50.6831 9.95799 50.6846 9.95548C50.686 9.95297 50.6879 9.95081 50.6902 9.94913C50.6925 9.94746 50.6952 9.94631 50.698 9.94577C50.7008 9.94524 50.7037 9.94532 50.7064 9.94602L52.7091 10.4385C52.7137 10.4396 52.7178 10.4424 52.7206 10.4464C52.7233 10.4503 52.7246 10.4551 52.7241 10.4599L52.6814 10.8864C52.6811 10.8893 52.6802 10.8921 52.6788 10.8945C52.6774 10.897 52.6754 10.8991 52.6731 10.9008C52.6708 10.9024 52.6682 10.9036 52.6654 10.9041C52.6626 10.9046 52.6597 10.9045 52.657 10.9038L51.1805 10.5417C51.1777 10.541 51.1748 10.5409 51.172 10.5414C51.1692 10.542 51.1665 10.5432 51.1642 10.5449C51.1619 10.5466 51.16 10.5488 51.1586 10.5513C51.1572 10.5538 51.1563 10.5566 51.1561 10.5595L51.1331 10.8576C51.1327 10.8623 51.134 10.867 51.1367 10.8708C51.1394 10.8747 51.1434 10.8774 51.1479 10.8786L52.6227 11.2429C52.6273 11.244 52.6313 11.2467 52.6341 11.2506C52.6368 11.2545 52.6381 11.2593 52.6377 11.2641L52.6041 11.6196C52.6039 11.6224 52.603 11.6252 52.6016 11.6277C52.6002 11.6301 52.5983 11.6323 52.596 11.634C52.5937 11.6356 52.5911 11.6368 52.5883 11.6373C52.5856 11.6379 52.5827 11.6378 52.58 11.6372L51.1192 11.2827C51.1165 11.282 51.1137 11.2819 51.1109 11.2825C51.1082 11.283 51.1055 11.2842 51.1033 11.2858C51.101 11.2874 51.0991 11.2896 51.0976 11.292C51.0962 11.2945 51.0953 11.2972 51.095 11.3001L51.0666 11.5786C51.0662 11.5834 51.0674 11.5882 51.0701 11.5921C51.0728 11.596 51.0768 11.5988 51.0814 11.6ZM35.8359 15.2147C36.0823 15.1016 36.3328 14.9986 36.5875 14.9059C36.5911 14.9046 36.5944 14.9024 36.597 14.8995C36.5995 14.8966 36.6014 14.8932 36.6023 14.8894C36.7918 14.1294 37.0982 13.4756 37.8318 13.1189C37.9431 13.0648 38.0619 13.0315 38.1882 13.0191C38.2364 13.0143 38.2424 13.0281 38.206 13.0606C37.7405 13.4778 37.446 13.9973 37.3227 14.619C37.3219 14.6231 37.3221 14.6274 37.3234 14.6314C37.3247 14.6353 37.327 14.6389 37.3301 14.6417C37.3332 14.6445 37.337 14.6464 37.3411 14.6472C37.3451 14.648 37.3493 14.6478 37.3532 14.6464C37.5522 14.5786 37.7539 14.5212 37.9583 14.4744C37.9619 14.4736 37.9652 14.4719 37.968 14.4696C37.9708 14.4673 37.9731 14.4644 37.9745 14.461C38.1992 13.9583 38.5587 13.301 39.1763 13.2273C39.2166 13.2226 39.2572 13.2201 39.2979 13.2199C39.335 13.2198 39.3406 13.2333 39.3148 13.2605C39.2771 13.2997 39.2376 13.3369 39.1965 13.3722C38.8757 13.6464 38.774 13.9505 38.6754 14.3524C38.6746 14.3559 38.6745 14.3595 38.6752 14.363C38.676 14.3666 38.6775 14.3699 38.6796 14.3727C38.6818 14.3755 38.6846 14.3779 38.6878 14.3795C38.6909 14.3811 38.6944 14.3819 38.698 14.3819C38.88 14.3837 39.0613 14.3958 39.2418 14.4182C39.2456 14.4186 39.2494 14.4181 39.2529 14.4168C39.2565 14.4155 39.2597 14.4133 39.2622 14.4105C39.4597 14.1887 39.6325 14.0212 39.9058 13.8959C40.0866 13.813 40.276 13.7802 40.474 13.7975C40.5119 13.8008 40.5147 13.8126 40.4823 13.8328C40.3127 13.9387 40.1592 14.068 40.0216 14.2206C39.9565 14.2928 39.8417 14.4417 39.8534 14.5568C39.8538 14.5603 39.8549 14.5637 39.8567 14.5668C39.8585 14.5698 39.8609 14.5724 39.8638 14.5745C40.2082 14.806 40.5543 15.1291 40.7304 15.5144C40.7639 15.5878 40.7863 15.6633 40.7976 15.741C40.8029 15.777 40.7924 15.7826 40.7661 15.7577C40.5816 15.5818 40.3792 15.4304 40.1589 15.3035C39.6578 15.0148 38.929 14.9721 38.3901 15.0605C37.3725 15.2273 36.3595 15.7012 35.4503 16.2752C35.4476 16.2769 35.4452 16.2792 35.4434 16.2818C35.4415 16.2845 35.4402 16.2875 35.4395 16.2906C35.3538 16.7367 35.1181 17.0226 34.6464 16.7969C34.56 16.7557 34.4848 16.7655 34.3869 16.7641C34.1833 16.7612 34.0274 16.5754 34.0608 16.3709C34.0871 16.2106 34.2336 16.1108 34.2758 15.9528C34.3282 15.7562 34.4019 15.5811 34.6259 15.562C34.7405 15.5525 34.8598 15.6075 34.9551 15.6714C34.96 15.6746 34.9658 15.6759 34.9716 15.675C35.0488 15.6635 35.0979 15.6233 35.1139 15.5406C35.1428 15.3908 35.1719 15.2411 35.2012 15.0915C35.3463 14.3503 35.6079 13.6707 36.26 13.2392C36.4234 13.1311 36.5961 13.0702 36.7782 13.0565C36.8248 13.053 36.8305 13.0669 36.7953 13.0982C36.7131 13.1711 36.6335 13.2466 36.5563 13.3248C36.2631 13.6217 36.0659 13.9795 35.9646 14.3984C35.8949 14.687 35.8411 14.9506 35.803 15.1892C35.7983 15.2184 35.8093 15.2269 35.8359 15.2147ZM39.8124 19.1159C39.9469 19.2424 40.1249 19.0275 39.9969 18.9041C39.8516 18.7638 39.5999 18.8043 39.5886 18.5288C39.57 18.075 40.247 18.0878 40.2211 18.4993C40.2208 18.5054 40.2182 18.5111 40.2138 18.5152C40.2094 18.5194 40.2037 18.5217 40.1977 18.5217H40.0749C40.0696 18.5217 40.0645 18.5199 40.0604 18.5165C40.0562 18.5131 40.0533 18.5084 40.0521 18.5031L40.0347 18.4259C40.0338 18.4216 40.0317 18.4176 40.0286 18.4145C39.9387 18.3216 39.7889 18.353 39.7886 18.4888C39.7882 18.6437 39.9889 18.6532 40.0925 18.7161C40.3282 18.8596 40.2582 19.2269 40.0063 19.3096C39.7828 19.383 39.5559 19.2451 39.5712 18.9908C39.5716 18.9848 39.5742 18.9791 39.5786 18.9749C39.5829 18.9707 39.5887 18.9684 39.5947 18.9684H39.7391C39.7449 18.9684 39.7506 18.9707 39.7549 18.9747C39.7592 18.9788 39.7619 18.9844 39.7623 18.9904C39.7669 19.0469 39.7835 19.0888 39.8124 19.1159ZM43.3962 19.2617C43.2579 19.1567 43.2469 18.9306 43.249 18.7578C43.2511 18.5601 43.2563 18.4197 43.3744 18.2823C43.4962 18.1402 43.7533 18.1555 43.8602 18.3068C43.9023 18.3665 43.9236 18.4361 43.924 18.5155C43.9241 18.5187 43.9235 18.5218 43.9223 18.5247C43.9212 18.5276 43.9194 18.5303 43.9173 18.5325C43.9151 18.5347 43.9125 18.5365 43.9096 18.5377C43.9067 18.5389 43.9037 18.5396 43.9006 18.5396H43.7498C43.7437 18.5396 43.7378 18.5372 43.7334 18.5328C43.729 18.5285 43.7265 18.5226 43.7263 18.5165C43.7242 18.4316 43.6963 18.3454 43.5981 18.3471C43.3997 18.3504 43.461 18.8841 43.4742 18.9923C43.4899 19.1243 43.639 19.2274 43.72 19.068C43.7363 19.0356 43.7419 18.982 43.7369 18.9072C43.7364 18.9012 43.7338 18.8955 43.7294 18.8914C43.725 18.8873 43.7193 18.885 43.7134 18.885H43.6348C43.6317 18.885 43.6286 18.8844 43.6257 18.8832C43.6229 18.882 43.6203 18.8802 43.6181 18.878C43.6159 18.8757 43.6142 18.8731 43.613 18.8702C43.6118 18.8673 43.6113 18.8641 43.6113 18.861L43.6125 18.7478C43.6125 18.7415 43.615 18.7355 43.6194 18.7311C43.6238 18.7267 43.6298 18.7242 43.6359 18.7242H43.9088C43.915 18.7242 43.9209 18.7267 43.9253 18.7312C43.9297 18.7356 43.9322 18.7417 43.9323 18.748L43.9325 19.2841C43.9325 19.2873 43.9319 19.2904 43.9307 19.2933C43.9295 19.2962 43.9277 19.2988 43.9255 19.3011C43.9233 19.3033 43.9207 19.305 43.9178 19.3062C43.915 19.3074 43.9119 19.308 43.9088 19.308H43.8097C43.8037 19.3079 43.798 19.3056 43.7936 19.3014C43.7893 19.2972 43.7868 19.2916 43.7865 19.2856C43.7848 19.2598 43.7879 19.2239 43.7484 19.2546C43.6294 19.3475 43.512 19.3499 43.3962 19.2617ZM40.2864 18.3921V18.2415C40.2864 18.2393 40.2868 18.2372 40.2877 18.2352C40.2885 18.2332 40.2897 18.2314 40.2912 18.2299C40.2927 18.2284 40.2945 18.2271 40.2964 18.2263C40.2984 18.2255 40.3005 18.2251 40.3026 18.2251L40.9394 18.2234C40.9437 18.2234 40.9478 18.2251 40.9509 18.2282C40.9539 18.2313 40.9556 18.2355 40.9556 18.2398V18.3921C40.9556 18.3964 40.9539 18.4006 40.9509 18.4037C40.9478 18.4068 40.9437 18.4085 40.9394 18.4085H40.737C40.7327 18.4085 40.7286 18.4103 40.7256 18.4133C40.7225 18.4164 40.7208 18.4206 40.7208 18.425V19.2968C40.7208 19.2989 40.7204 19.3011 40.7196 19.3031C40.7188 19.305 40.7176 19.3069 40.7161 19.3084C40.7146 19.3099 40.7128 19.3111 40.7108 19.3119C40.7089 19.3128 40.7067 19.3132 40.7046 19.3132H40.5316C40.5294 19.3132 40.5273 19.3128 40.5254 19.3119C40.5234 19.3111 40.5216 19.3099 40.5201 19.3084C40.5186 19.3069 40.5174 19.305 40.5166 19.3031C40.5158 19.3011 40.5154 19.2989 40.5154 19.2968V18.425C40.5154 18.4206 40.5137 18.4164 40.5106 18.4133C40.5076 18.4103 40.5035 18.4085 40.4992 18.4085H40.3026C40.2983 18.4085 40.2942 18.4068 40.2912 18.4037C40.2881 18.4006 40.2864 18.3964 40.2864 18.3921ZM42.0036 18.4085H41.8185C41.8123 18.4085 41.8063 18.406 41.8019 18.4015C41.7975 18.3971 41.7951 18.391 41.7951 18.3847V18.2489C41.795 18.2458 41.7956 18.2427 41.7968 18.2398C41.7979 18.2369 41.7996 18.2343 41.8018 18.2321C41.8039 18.2298 41.8065 18.2281 41.8094 18.2269C41.8122 18.2257 41.8152 18.2251 41.8183 18.2251L42.4455 18.2234C42.4517 18.2234 42.4576 18.2259 42.462 18.2303C42.4664 18.2347 42.4689 18.2407 42.469 18.247L42.4706 18.3845C42.4706 18.3876 42.47 18.3907 42.4689 18.3937C42.4677 18.3966 42.466 18.3992 42.4638 18.4015C42.4616 18.4037 42.459 18.4055 42.4562 18.4067C42.4533 18.4079 42.4502 18.4085 42.4471 18.4085H42.2529C42.2467 18.4085 42.2407 18.411 42.2363 18.4155C42.2319 18.42 42.2295 18.426 42.2295 18.4324V19.2906C42.2295 19.2937 42.2288 19.2969 42.2276 19.2998C42.2264 19.3027 42.2247 19.3054 42.2225 19.3076C42.2203 19.3098 42.2176 19.3115 42.2148 19.3127C42.2119 19.3139 42.2088 19.3145 42.2057 19.3144L42.0555 19.3122C42.0494 19.3122 42.0436 19.3097 42.0393 19.3054C42.0349 19.3011 42.0324 19.2953 42.0322 19.2891C42.0259 19.0297 42.009 18.7557 42.0306 18.4984C42.0324 18.4747 42.0311 18.4511 42.0266 18.4276C42.0255 18.4222 42.0226 18.4174 42.0184 18.4139C42.0142 18.4104 42.009 18.4085 42.0036 18.4085ZM42.9977 18.42L42.9989 19.3025C42.9989 19.3041 42.9986 19.3057 42.998 19.3072C42.9974 19.3087 42.9965 19.31 42.9953 19.3112C42.9942 19.3123 42.9928 19.3132 42.9914 19.3138C42.9899 19.3144 42.9883 19.3147 42.9867 19.3146L42.8047 19.3127C42.8016 19.3127 42.7986 19.3114 42.7964 19.3091C42.7942 19.3068 42.793 19.3038 42.793 19.3006V18.4207C42.793 18.4175 42.7917 18.4144 42.7895 18.4121C42.7872 18.4098 42.7842 18.4085 42.781 18.4085H42.5702C42.567 18.4085 42.5639 18.4072 42.5617 18.405C42.5594 18.4027 42.5582 18.3996 42.5582 18.3964V18.2413C42.5582 18.238 42.5594 18.235 42.5617 18.2327C42.5639 18.2304 42.567 18.2291 42.5702 18.2291L43.2213 18.2301C43.2244 18.2301 43.2275 18.2314 43.2297 18.2336C43.232 18.2359 43.2332 18.239 43.2332 18.2422V18.398C43.2332 18.3997 43.2329 18.4013 43.2323 18.4028C43.2317 18.4042 43.2308 18.4056 43.2297 18.4067C43.2285 18.4079 43.2272 18.4087 43.2257 18.4093C43.2242 18.4099 43.2226 18.4102 43.221 18.4102L43.0099 18.4078C43.0084 18.4078 43.0068 18.4081 43.0053 18.4087C43.0038 18.4093 43.0025 18.4102 43.0013 18.4113C43.0002 18.4124 42.9993 18.4138 42.9987 18.4153C42.9981 18.4167 42.9977 18.4183 42.9977 18.42ZM41.649 19.1428C41.5419 19.3782 41.1522 19.3863 41.0601 19.1123C41.0493 19.0801 41.0438 19.0231 41.0437 18.9413C41.0435 18.7122 41.0437 18.483 41.0441 18.2537C41.0441 18.2473 41.0466 18.2413 41.051 18.2368C41.0553 18.2323 41.0612 18.2298 41.0674 18.2298H41.2139C41.2201 18.2298 41.2261 18.2323 41.2305 18.2368C41.2349 18.2413 41.2374 18.2473 41.2374 18.2537V19.0566C41.2374 19.0603 41.2383 19.0639 41.2399 19.0673C41.2416 19.0706 41.244 19.0734 41.247 19.0757C41.429 19.2124 41.4905 19.068 41.4903 18.9136C41.4897 18.7013 41.4896 18.4813 41.49 18.2537C41.49 18.2473 41.4925 18.2413 41.4969 18.2368C41.5013 18.2323 41.5073 18.2298 41.5135 18.2298H41.6598C41.666 18.2298 41.6719 18.2323 41.6763 18.2368C41.6807 18.2413 41.6832 18.2473 41.6833 18.2537C41.6836 18.4678 41.6837 18.6818 41.6835 18.8958C41.6835 19.01 41.672 19.0923 41.649 19.1428ZM44.5385 19.0816H44.3066C44.3038 19.0816 44.3011 19.0826 44.299 19.0843C44.2968 19.086 44.2953 19.0884 44.2946 19.0911L44.2399 19.3044C44.2392 19.3071 44.2376 19.3095 44.2355 19.3112C44.2333 19.3129 44.2306 19.3139 44.2279 19.3139H44.037C44.0351 19.3139 44.0332 19.3135 44.0315 19.3126C44.0298 19.3117 44.0283 19.3105 44.0271 19.3089C44.026 19.3074 44.0252 19.3056 44.0248 19.3037C44.0244 19.3018 44.0245 19.2998 44.025 19.298L44.3007 18.2401C44.3014 18.2374 44.303 18.2351 44.3051 18.2334C44.3073 18.2317 44.3099 18.2308 44.3127 18.2308L44.5388 18.2294C44.5415 18.2294 44.5442 18.2303 44.5464 18.232C44.5485 18.2338 44.5501 18.2362 44.5507 18.2389L44.8154 19.2863C44.8158 19.2881 44.8159 19.2901 44.8155 19.2919C44.8151 19.2938 44.8143 19.2956 44.8132 19.2971C44.812 19.2986 44.8105 19.2998 44.8088 19.3007C44.8071 19.3015 44.8053 19.302 44.8034 19.302H44.6118C44.609 19.302 44.6063 19.3011 44.6041 19.2994C44.6019 19.2977 44.6003 19.2952 44.5996 19.2925L44.5507 19.0911C44.5501 19.0884 44.5485 19.086 44.5463 19.0842C44.5441 19.0825 44.5413 19.0816 44.5385 19.0816ZM44.3336 18.8769C44.3333 18.878 44.3334 18.8791 44.3336 18.8802C44.3339 18.8812 44.3344 18.8822 44.335 18.883C44.3357 18.8839 44.3366 18.8845 44.3375 18.885C44.3385 18.8855 44.3395 18.8857 44.3406 18.8858L44.5087 18.8843C44.5098 18.8843 44.5109 18.8841 44.5119 18.8836C44.5128 18.8831 44.5137 18.8824 44.5144 18.8815C44.5151 18.8807 44.5155 18.8796 44.5158 18.8786C44.516 18.8775 44.516 18.8764 44.5158 18.8753L44.4284 18.4822C44.4281 18.4805 44.4272 18.4789 44.4258 18.4778C44.4245 18.4768 44.4229 18.4762 44.4212 18.4762C44.4194 18.4762 44.4178 18.4769 44.4165 18.478C44.4152 18.4791 44.4144 18.4807 44.4141 18.4824L44.3336 18.8769ZM45.86 18.4131L45.6607 18.4142C45.6568 18.4142 45.653 18.4127 45.6502 18.4098C45.6474 18.407 45.6459 18.4032 45.6459 18.3992V18.2448C45.6459 18.2409 45.6474 18.237 45.6502 18.2342C45.653 18.2314 45.6568 18.2298 45.6607 18.2298H46.3003C46.3042 18.2298 46.308 18.2314 46.3108 18.2342C46.3135 18.237 46.3151 18.2409 46.3151 18.2448L46.3153 18.4002C46.3153 18.4022 46.3149 18.4042 46.3142 18.406C46.3134 18.4079 46.3122 18.4096 46.3108 18.411C46.3094 18.4124 46.3077 18.4135 46.3059 18.4142C46.304 18.4149 46.302 18.4153 46.3001 18.4152L46.0951 18.4085C46.0931 18.4085 46.0911 18.4088 46.0893 18.4095C46.0874 18.4103 46.0857 18.4114 46.0843 18.4128C46.0829 18.4142 46.0818 18.4158 46.081 18.4177C46.0802 18.4195 46.0798 18.4215 46.0798 18.4235L46.0805 19.2989C46.0805 19.3029 46.079 19.3067 46.0762 19.3095C46.0734 19.3123 46.0696 19.3139 46.0657 19.3139H45.8896C45.8857 19.3139 45.8819 19.3123 45.8792 19.3095C45.8764 19.3067 45.8748 19.3029 45.8748 19.2989V18.4281C45.8748 18.4241 45.8733 18.4203 45.8705 18.4175C45.8677 18.4146 45.864 18.4131 45.86 18.4131ZM45.4914 18.7678C45.5315 18.8218 45.5552 18.8789 45.5625 18.9389C45.5705 19.0029 45.5758 19.1064 45.5785 19.2493C45.5787 19.2532 45.5796 19.2568 45.5813 19.2603L45.5881 19.2729C45.59 19.2766 45.591 19.2806 45.5909 19.2847C45.5908 19.2888 45.5896 19.2928 45.5875 19.2964C45.5855 19.2999 45.5825 19.3028 45.579 19.3048C45.5755 19.3069 45.5715 19.3079 45.5675 19.308H45.404C45.3985 19.3079 45.3931 19.3059 45.3889 19.3023C45.3846 19.2987 45.3818 19.2937 45.3808 19.2882C45.3545 19.1407 45.3763 19.012 45.3247 18.8655C45.323 18.8608 45.32 18.8568 45.316 18.8539C45.312 18.8511 45.3073 18.8496 45.3024 18.8495L45.1643 18.8503C45.1581 18.8503 45.1522 18.8529 45.1478 18.8573C45.1435 18.8618 45.1411 18.8678 45.1411 18.8741V19.2841C45.1411 19.2905 45.1386 19.2965 45.1342 19.301C45.1298 19.3054 45.1238 19.308 45.1176 19.308H44.9649C44.9587 19.308 44.9527 19.3054 44.9483 19.301C44.9439 19.2965 44.9415 19.2905 44.9415 19.2841V18.2622C44.9415 18.2561 44.9438 18.2503 44.9479 18.2459C44.9521 18.2415 44.9578 18.2389 44.9638 18.2386C45.1505 18.2299 45.2838 18.2309 45.3636 18.2417C45.5571 18.2682 45.6001 18.4288 45.5736 18.5991C45.5654 18.6519 45.5392 18.6973 45.4949 18.7354C45.4903 18.7394 45.4874 18.7449 45.4868 18.751C45.4861 18.757 45.4878 18.763 45.4914 18.7678ZM45.3444 18.3959L45.1596 18.3892C45.1564 18.3891 45.1533 18.3896 45.1503 18.3908C45.1474 18.3919 45.1447 18.3936 45.1424 18.3959C45.1401 18.3981 45.1383 18.4008 45.1371 18.4037C45.1358 18.4067 45.1352 18.4098 45.1352 18.4131V18.6554C45.1352 18.6587 45.1358 18.662 45.1372 18.6651C45.1385 18.6681 45.1404 18.6709 45.1429 18.6731C45.1453 18.6754 45.1482 18.6771 45.1513 18.6781C45.1544 18.6792 45.1577 18.6795 45.161 18.6792C45.185 18.6766 45.2097 18.6755 45.2352 18.6759C45.3845 18.6775 45.4127 18.5484 45.3658 18.4119C45.3642 18.4074 45.3614 18.4034 45.3576 18.4006C45.3538 18.3977 45.3492 18.3961 45.3444 18.3959ZM41.9413 19.8919C41.8887 19.8784 41.8827 19.8558 41.9233 19.824L42.182 19.6206C42.2266 19.5856 42.236 19.5936 42.2102 19.6444C42.1898 19.6847 42.1742 19.7268 42.1632 19.7707C42.1348 19.8848 42.0548 19.9208 41.9413 19.8919Z" fill="#171718"/>
<path d="M41.0116 23.1809L40.9139 23.2161C40.9084 23.2181 40.9022 23.2179 40.8968 23.2156C40.7547 23.1549 40.6782 22.9304 40.6413 22.7915C40.6035 22.6483 40.441 22.4837 40.2853 22.5652C40.1536 22.6341 40.0228 22.7851 40.0674 22.9471C40.0784 22.9864 40.0706 23.0213 40.044 23.052C39.936 23.1763 39.7946 23.2738 39.8824 23.4594C39.9205 23.5399 39.9247 23.5795 39.8557 23.635C39.7816 23.6945 39.7076 23.7328 39.6338 23.7498C39.5187 23.7765 39.529 23.5623 39.5415 23.4968C39.5468 23.468 39.5636 23.433 39.592 23.3917C39.6589 23.294 39.6784 23.223 39.692 23.0896C39.7019 22.9949 39.7328 22.9069 39.785 22.8256C39.9345 22.5932 40.0959 22.3701 40.2694 22.1563C40.3163 22.0984 40.3828 22.0772 40.4448 22.1223C40.5507 22.199 40.9924 22.6367 41.0701 22.3612C41.1283 22.1554 41.0954 21.9357 41.2694 21.7403C41.4387 21.5504 41.7193 21.3019 41.778 21.0587C41.7876 21.019 41.7725 20.9953 41.7329 20.9877C41.6018 20.9624 41.496 20.9835 41.4157 21.0511C41.3199 21.1316 41.3237 21.2462 41.149 21.1909C41.1459 21.1899 41.1431 21.1883 41.1407 21.1862C41.1383 21.1841 41.1363 21.1815 41.1349 21.1786C41.1335 21.1757 41.1327 21.1726 41.1325 21.1694C41.1324 21.1662 41.1328 21.163 41.1339 21.1599C41.1471 21.1237 41.2161 20.9944 41.1825 20.9693C41.1798 20.9673 41.1765 20.9658 41.1731 20.9652C41.1697 20.9645 41.1662 20.9646 41.1628 20.9655C41.0837 20.9865 40.9024 21.0816 40.9146 20.9024C40.9173 20.8627 40.9382 20.8423 40.9773 20.8411C41.0635 20.8388 41.0466 20.7177 41.095 20.6696C41.2003 20.5651 41.3119 20.466 41.4298 20.3725C41.4602 20.3483 41.4938 20.3418 41.5308 20.353C41.5937 20.3719 41.6608 20.3778 41.7322 20.3708C41.7785 20.3665 41.8496 20.3337 41.7644 20.2848C41.7043 20.2505 41.6475 20.2117 41.5942 20.1683C41.5907 20.1655 41.5881 20.1618 41.5866 20.1576C41.5852 20.1534 41.5849 20.1488 41.5859 20.1445C41.6338 19.9248 41.909 20.0354 42.0732 19.9884C42.1256 19.9733 42.1727 19.9499 42.2145 19.9181C42.248 19.8926 42.2604 19.9006 42.2516 19.9422L42.2232 20.0747C42.2223 20.0788 42.2226 20.0831 42.2238 20.087C42.2251 20.091 42.2274 20.0946 42.2305 20.0973C42.3202 20.18 42.4294 20.2653 42.5012 20.3491C42.8105 20.7096 42.8445 21.1897 42.8243 21.6481C42.8235 21.6666 42.8281 21.674 42.8379 21.6705C42.8403 21.6697 42.8424 21.6683 42.8441 21.6665C42.8458 21.6646 42.847 21.6623 42.8476 21.6598C43.0042 20.9872 42.8781 20.5002 42.3951 20.0289C42.3926 20.0265 42.3907 20.0235 42.3894 20.0202C42.3882 20.0169 42.3877 20.0134 42.388 20.0099C42.3956 19.9158 42.4271 19.8448 42.4827 19.7969C42.5259 19.7594 42.561 19.7634 42.5881 19.809C42.5904 19.8131 42.5915 19.8177 42.5914 19.8224L42.5881 19.9122C42.588 19.9167 42.5891 19.9213 42.5913 19.9252C42.5936 19.9291 42.5968 19.9323 42.6008 19.9343C42.6733 19.9723 42.7387 19.9829 42.7971 19.9663C42.8492 19.9512 43.2545 19.8347 43.1897 19.962C43.1881 19.965 43.186 19.9677 43.1833 19.9699C43.1807 19.972 43.1777 19.9735 43.1744 19.9744L43.0164 20.013C43.0123 20.014 43.0085 20.0161 43.0055 20.0191C43.0025 20.0221 43.0003 20.0259 42.9992 20.0301C42.9755 20.1221 43.0105 20.1728 43.0981 20.1507C43.2534 20.1111 43.4111 20.0871 43.5712 20.0785C43.6609 20.0737 43.6875 20.1454 43.6006 20.1747C43.5397 20.1952 43.4641 20.2096 43.3738 20.2179C43.3362 20.2212 43.1984 20.2762 43.2632 20.341C43.3 20.3784 43.393 20.3217 43.3928 20.4001C43.3928 20.4058 43.3907 20.4114 43.3869 20.4159C43.3396 20.4702 43.3407 20.5109 43.39 20.5381C43.4764 20.5857 43.6468 20.5507 43.7361 20.5193C43.8046 20.495 43.9307 20.4866 43.8518 20.6136C43.8486 20.6187 43.8437 20.6223 43.838 20.6239C43.7478 20.6484 43.3449 20.7408 43.563 20.9174C43.5668 20.9206 43.5716 20.9225 43.5766 20.9226C43.6825 20.9272 43.7875 20.9398 43.8917 20.9603C44.011 20.9836 44.0045 21.0837 43.8845 21.1075C43.8159 21.1211 43.6985 21.1268 43.6438 21.1702C43.6392 21.1738 43.6361 21.1791 43.6351 21.1849C43.6342 21.1908 43.6354 21.1969 43.6386 21.2019C43.648 21.2165 43.6615 21.2235 43.679 21.2228C43.7548 21.2208 43.8226 21.234 43.8824 21.2624C43.8877 21.265 43.8918 21.2694 43.8941 21.2748C43.9177 21.3324 43.8988 21.36 43.8373 21.3575C43.7147 21.3527 43.6075 21.364 43.5156 21.3913C43.3623 21.437 43.5607 21.4718 43.5764 21.5078C43.5781 21.5117 43.5787 21.5161 43.5781 21.5204C43.5775 21.5247 43.5758 21.5287 43.5731 21.5321C43.5503 21.5615 43.5362 21.5944 43.5308 21.6307C43.5301 21.636 43.531 21.6413 43.5336 21.646C43.5362 21.6506 43.5403 21.6542 43.5452 21.6562C43.6181 21.6863 43.694 21.6935 43.7729 21.6779C43.8097 21.6706 43.8367 21.682 43.8539 21.712C43.9239 21.834 43.6269 21.7944 43.5623 21.7909C43.3958 21.7816 43.5816 21.9288 43.6055 21.9519C43.6091 21.9554 43.6116 21.96 43.6125 21.965C43.6133 21.97 43.6126 21.9752 43.6104 21.9798C43.5506 22.102 43.3613 21.9598 43.2836 22.0386C43.2395 22.0837 43.2653 22.1623 43.2214 22.2026C43.1528 22.2657 43.0185 22.2202 43.0032 22.3358C42.9751 22.5488 43.594 22.7572 43.7429 22.8037C44.008 22.8866 44.293 22.7918 44.5584 22.8635C44.7044 22.903 44.8195 22.9912 44.9479 23.0682C45.1883 23.2121 45.515 23.0219 45.2337 22.7811C45.0867 22.6553 44.9322 22.59 44.9296 22.3677C44.9276 22.1939 44.8916 22.0278 44.8218 21.8695C44.8 21.8199 44.7861 21.6581 44.8793 21.6665C44.9087 21.6691 44.9287 21.7022 44.9622 21.7122C44.9678 21.7139 44.9738 21.7135 44.9789 21.711C45.2262 21.5929 45.1804 21.26 45.4758 21.2202C45.611 21.2021 45.7487 21.1855 45.8888 21.1704C45.9284 21.1661 45.938 21.1466 45.9177 21.1118C45.8413 20.9822 45.8831 20.6958 46.0924 20.733C46.0961 20.7337 46.0995 20.7352 46.1025 20.7375C46.1055 20.7398 46.108 20.7428 46.1096 20.7462C46.1112 20.7497 46.112 20.7534 46.1119 20.7572C46.1118 20.761 46.1108 20.7647 46.109 20.768L46.047 20.8817C46.0246 20.9228 46.0201 20.9604 46.0334 20.9946C46.0689 21.0849 46.1581 21.2574 46.0029 21.2934C45.8566 21.3272 45.4208 21.4251 45.4593 21.656C45.4732 21.7394 45.5615 21.6791 45.5986 21.6469C45.6828 21.5738 45.7883 21.4668 45.9076 21.4804C45.9966 21.4906 45.9853 21.5619 45.9167 21.595C45.8394 21.6325 45.7866 21.6824 45.7585 21.7449C45.7282 21.8125 45.7993 21.7937 45.8284 21.7789C45.9212 21.732 46.02 21.6639 46.1219 21.6431C46.1579 21.6358 46.1661 21.6479 46.1464 21.6793C46.1115 21.7346 46.0788 21.7913 46.0484 21.8495C45.9907 21.9598 46.1637 21.9047 46.1966 21.8988C46.2016 21.8979 46.2068 21.8987 46.2114 21.9012C46.3074 21.9514 46.1006 22.1316 46.0588 22.1597C46.0295 22.1795 46.013 22.2073 46.0092 22.2428C45.9907 22.4225 45.8705 22.3889 45.8115 22.5016C45.7563 22.6071 45.85 22.5816 45.8914 22.5533C45.9631 22.504 46.0396 22.4643 46.121 22.4339C46.1687 22.4161 46.1885 22.432 46.1802 22.4816C46.1683 22.5535 46.146 22.6215 46.1135 22.6855C46.1118 22.6888 46.1109 22.6924 46.1108 22.696C46.1108 22.6997 46.1115 22.7033 46.1131 22.7066C46.1146 22.7099 46.1169 22.7128 46.1198 22.7151C46.1226 22.7173 46.1259 22.7189 46.1295 22.7196L46.2346 22.742C46.238 22.7427 46.2412 22.7442 46.244 22.7463C46.2467 22.7484 46.249 22.7511 46.2506 22.7542C46.2522 22.7573 46.2531 22.7607 46.2533 22.7642C46.2535 22.7677 46.2529 22.7712 46.2516 22.7744C46.2254 22.8389 46.2186 22.9068 46.2311 22.9781C46.232 22.9831 46.2313 22.9882 46.2291 22.9928C46.2269 22.9973 46.2233 23.001 46.2189 23.0034C46.1674 23.0305 46.1097 23.0566 46.0459 23.0815C45.9808 23.1068 45.9346 23.1832 46.0388 23.2075C46.1022 23.2225 46.1369 23.2554 46.1428 23.3062C46.159 23.4406 45.9641 23.5147 45.8625 23.5118C45.687 23.507 45.5183 23.4582 45.3562 23.3653C45.124 23.2321 45.2966 23.5945 45.3008 23.6488C45.3271 23.9821 45.1193 24.1744 44.9787 24.4572C44.853 24.7105 45.0378 24.9952 45.1862 25.181C45.2618 25.2756 45.2355 25.3414 45.148 25.4138C44.9282 25.5949 44.7528 25.7657 44.6769 26.0545C44.6658 26.0974 44.6496 26.1291 44.6283 26.1496C44.5363 26.2387 44.3499 26.2854 44.2259 26.3259C44.1845 26.3392 44.1686 26.3674 44.178 26.4105C44.1899 26.4655 44.2261 26.5434 44.1956 26.5992C44.1423 26.6961 43.9368 26.7502 43.8457 26.7543C43.8422 26.7544 43.8387 26.7538 43.8355 26.7524C43.8322 26.751 43.8294 26.7489 43.827 26.7463C43.8247 26.7436 43.823 26.7405 43.8221 26.7371C43.8211 26.7337 43.8209 26.7301 43.8215 26.7266C43.8499 26.5556 43.896 26.3247 44.0326 26.212C44.1791 26.0912 44.3628 25.963 44.4712 25.8055C44.5467 25.6958 44.6217 25.5859 44.6962 25.4758C44.7849 25.3443 44.7601 25.2063 44.6377 25.1058C44.5732 25.0524 44.4426 25.0307 44.3656 24.9833C44.2713 24.925 44.1888 24.8616 44.1179 24.7932C44.0845 24.7609 44.0574 24.7655 44.0364 24.807C43.9699 24.938 44.0066 25.0791 44.012 25.2194C44.0137 25.2671 43.9932 25.3008 43.9504 25.3207C43.7032 25.4355 43.3984 25.5315 43.2162 25.7533C43.1714 25.808 43.1411 25.8406 43.1251 25.851C43.0314 25.9127 42.91 25.8732 42.8281 25.9075C42.7048 25.959 42.7668 26.0547 42.7529 26.1434C42.752 26.1486 42.7495 26.1534 42.7457 26.157C42.6643 26.2351 42.5662 26.2789 42.4514 26.2882C42.3987 26.2925 42.3771 26.2666 42.3866 26.2106C42.4381 25.9092 42.6712 25.6507 42.972 25.5842C43.2953 25.5125 43.7262 25.2115 43.5872 24.8225C43.5182 24.6292 43.1859 24.4208 43.3392 24.1947C43.3574 24.1677 43.3504 24.1553 43.3183 24.1575C42.8941 24.1851 42.2692 24.1379 41.9365 23.8306C41.9325 23.827 41.9275 23.8249 41.9222 23.8246L41.8689 23.8211C41.8656 23.8208 41.8624 23.8213 41.8594 23.8224C41.8563 23.8235 41.8536 23.8252 41.8513 23.8275C41.7797 23.8956 41.6962 23.9274 41.6007 23.9228C41.3478 23.9107 41.0923 23.8654 40.8343 23.7868C40.6387 23.727 40.6005 23.8699 40.6211 24.0384C40.6308 24.1171 40.6247 24.1955 40.6028 24.2735C40.6016 24.2777 40.6016 24.2821 40.6028 24.2863C40.6039 24.2905 40.6062 24.2943 40.6094 24.2973C40.6524 24.3378 40.7108 24.3762 40.7287 24.4346C40.7737 24.5823 40.7035 24.7353 40.7937 24.8663C40.7969 24.8709 40.8015 24.8742 40.8069 24.8756C40.8123 24.8771 40.818 24.8766 40.8231 24.8742C40.9797 24.7986 41.0442 24.8947 41.0222 25.0355C41.0118 25.1017 40.9844 25.1686 40.94 25.2361C40.9374 25.24 40.9337 25.2431 40.9294 25.2449C40.9251 25.2466 40.9204 25.2471 40.9158 25.2461C40.7601 25.2139 40.6758 25.1093 40.6218 24.9621C40.5814 24.8525 40.4537 24.8294 40.4199 24.7195C40.3919 24.6282 40.3819 24.535 40.3898 24.4401C40.4117 24.1825 40.4018 23.9776 40.3154 23.7317C40.3027 23.6953 40.3056 23.6465 40.3241 23.5852C40.36 23.4656 40.4279 23.4775 40.5509 23.4658C40.7575 23.446 40.9567 23.4073 41.1483 23.3498C41.1761 23.3415 41.1789 23.3279 41.1567 23.3088C41.1132 23.272 41.0734 23.2317 41.0374 23.188C41.0343 23.1842 41.0302 23.1815 41.0256 23.1803C41.0209 23.179 41.0161 23.1792 41.0116 23.1809ZM45.0733 30.4282L45.5002 30.2348C45.5048 30.2328 45.5085 30.2293 45.511 30.225C45.5806 30.1038 45.6528 29.9808 45.7275 29.8559C46.0106 29.382 46.4669 29.1076 47.0184 29.1607C47.032 29.1621 47.0858 29.1802 47.0349 29.1974C46.7137 29.3051 46.314 29.6096 46.1388 29.9055C46.1107 29.9533 46.0841 30.0022 46.059 30.052C46.0437 30.0825 46.0524 30.0939 46.0853 30.0861C46.2586 30.045 46.4339 30.0187 46.6113 30.0072C46.6145 30.007 46.6176 30.0061 46.6204 30.0047C46.6232 30.0032 46.6257 30.0011 46.6277 29.9987C46.8402 29.7411 47.1065 29.4054 47.4946 29.3342C47.576 29.3191 47.6572 29.3184 47.7381 29.3322C47.7755 29.3386 47.7773 29.3505 47.7435 29.368C47.5651 29.4604 47.4037 29.5813 47.2593 29.7306C47.1986 29.7934 47.1479 29.8662 47.1072 29.9491C47.1055 29.9526 47.1046 29.9564 47.1047 29.9603C47.1048 29.9641 47.1058 29.9679 47.1076 29.9713C47.1094 29.9747 47.112 29.9776 47.1152 29.9797C47.1184 29.9818 47.122 29.9831 47.1257 29.9834L47.4765 30.0187C47.481 30.0191 47.4854 30.0184 47.4892 30.0165C47.7956 29.8629 48.1753 29.6163 48.4911 29.8631C48.501 29.8707 48.5015 29.8787 48.4925 29.8869C48.4908 29.8886 48.4887 29.89 48.4864 29.8909C48.4841 29.8918 48.4816 29.8922 48.4792 29.8922C48.2674 29.8844 48.0891 29.9566 47.9445 30.1087C47.9419 30.1115 47.94 30.1148 47.9389 30.1185C47.9378 30.1221 47.9376 30.126 47.9384 30.1297C47.9391 30.1335 47.9407 30.137 47.943 30.14C47.9453 30.1431 47.9483 30.1455 47.9518 30.1471C48.3183 30.3153 48.7396 30.6193 48.7302 31.0756C48.7297 31.0989 48.705 31.1075 48.6879 31.0868C48.5005 30.8624 48.1734 30.6815 47.8975 30.6019C46.7616 30.2739 45.5835 30.5624 44.587 31.1759C44.5837 31.1779 44.5809 31.1808 44.579 31.1841C44.577 31.1875 44.5759 31.1913 44.5757 31.1952C44.5724 31.2635 44.5685 31.311 44.564 31.3377C44.5245 31.5657 44.3198 31.564 44.1571 31.4659C44.1518 31.4628 44.1456 31.4619 44.1397 31.4632C43.9749 31.5011 43.8596 31.5342 43.7804 31.3629C43.7138 31.2183 43.791 31.1094 43.8915 31.0082C43.8938 31.0058 43.8956 31.0031 43.8968 31C43.898 30.997 43.8986 30.9938 43.8986 30.9905C43.8942 30.8638 43.949 30.7767 44.0629 30.7294C44.1829 30.6794 44.2428 30.7366 44.3405 30.7763C44.3435 30.7775 44.3468 30.7781 44.35 30.7779C44.3533 30.7777 44.3565 30.7769 44.3595 30.7754L44.4792 30.7156C44.482 30.7142 44.4844 30.7123 44.4865 30.7099C44.4885 30.7076 44.49 30.7048 44.491 30.7018C44.6044 30.3591 44.7152 30.0237 44.9218 29.7249C45.1008 29.4661 45.34 29.3106 45.6394 29.2581C45.6976 29.248 45.7039 29.262 45.6582 29.3001C45.6385 29.3166 45.6187 29.3331 45.5988 29.3496C45.3799 29.5314 45.1888 29.8748 45.0991 30.1304C45.0734 30.2033 45.0539 30.2944 45.0404 30.4037C45.037 30.4317 45.0479 30.4398 45.0733 30.4282ZM44.6121 32.6245L44.7594 32.5485C44.7641 32.546 44.7678 32.5421 44.7699 32.5373C44.9019 32.2538 45.0195 32.0332 45.2571 31.8383C45.3869 31.732 45.5289 31.6737 45.6831 31.6634C45.7319 31.6602 45.7357 31.672 45.6944 31.6986C45.5134 31.8157 45.3767 31.9724 45.2841 32.1687C45.2552 32.2304 45.2427 32.295 45.2466 32.3627C45.2468 32.3661 45.2477 32.3695 45.2494 32.3726C45.251 32.3756 45.2533 32.3783 45.2561 32.3803C45.2589 32.3824 45.2621 32.3838 45.2654 32.3845C45.2688 32.3852 45.2723 32.3852 45.2757 32.3844L45.5222 32.3236C45.5283 32.3221 45.5335 32.3181 45.5368 32.3126C45.6246 32.1632 45.7301 32.0283 45.8533 31.9081C45.9859 31.7786 46.1432 31.7206 46.3253 31.7341C46.3801 31.7383 46.3832 31.7532 46.3347 31.7789C46.1653 31.8688 46.0394 32.0021 45.9571 32.1787C45.9402 32.215 45.9537 32.233 45.9975 32.2328L46.2436 32.2323C46.2493 32.2323 46.2548 32.2302 46.2591 32.2264C46.4012 32.0993 46.5706 32.0328 46.7672 32.027C46.7756 32.0266 46.7824 32.028 46.7874 32.031C46.7904 32.0328 46.7926 32.0346 46.7942 32.0365C46.7954 32.0379 46.7962 32.0396 46.7967 32.0414C46.7971 32.0432 46.7971 32.0451 46.7968 32.0469C46.7964 32.0487 46.7956 32.0504 46.7944 32.0519C46.7933 32.0533 46.7919 32.0545 46.7902 32.0553C46.6808 32.1073 46.5881 32.1806 46.5122 32.2755C46.5099 32.2783 46.5083 32.2816 46.5075 32.2851C46.5067 32.2886 46.5067 32.2923 46.5074 32.2959C46.5082 32.2994 46.5098 32.3027 46.5121 32.3055C46.5143 32.3084 46.5172 32.3106 46.5204 32.3122C46.724 32.4091 46.9813 32.5776 47.1048 32.7746C47.1351 32.8228 47.161 32.8733 47.1826 32.9264C47.1981 32.9644 47.1889 32.9721 47.1551 32.9497C46.9611 32.8217 46.7549 32.721 46.5364 32.6476C46.2879 32.5642 46.0672 32.5619 45.8155 32.6078C45.3029 32.701 44.8129 32.9119 44.3611 33.173C44.3574 33.1752 44.3544 33.1783 44.3523 33.182C44.3503 33.1857 44.3492 33.19 44.3494 33.1942C44.3541 33.3755 44.1789 33.5656 43.9983 33.4222C43.9947 33.4193 43.9903 33.4174 43.9857 33.417L43.8011 33.4041C43.7979 33.4039 43.7948 33.403 43.792 33.4015C43.7892 33.4001 43.7867 33.398 43.7847 33.3955C43.6616 33.2435 43.7274 33.1513 43.8234 33.025C43.826 33.0216 43.8276 33.0176 43.8281 33.0134C43.8485 32.8511 43.9744 32.7348 44.1329 32.8223C44.1366 32.8243 44.1408 32.8253 44.145 32.8252C44.1492 32.825 44.1533 32.8238 44.1568 32.8216L44.1953 32.7968C44.1984 32.7948 44.201 32.7921 44.2029 32.789C44.2047 32.7858 44.2059 32.7823 44.2062 32.7787C44.2418 32.3684 44.3656 32.0167 44.71 31.7975C44.7631 31.7638 44.8235 31.7397 44.8913 31.7251C44.9364 31.7154 44.9439 31.7283 44.9139 31.7639C44.7609 31.9453 44.6546 32.1511 44.595 32.3813C44.5829 32.4284 44.5773 32.5025 44.5781 32.6036C44.5781 32.6076 44.5792 32.6116 44.5812 32.6151C44.5832 32.6186 44.586 32.6215 44.5894 32.6236C44.5928 32.6257 44.5967 32.6269 44.6006 32.6271C44.6046 32.6272 44.6086 32.6263 44.6121 32.6245Z" fill="#171718"/>
</svg>
