<svg width="85" height="45" viewBox="0 0 85 45" fill="none" xmlns="http://www.w3.org/2000/svg">
<rect width="85" height="45" fill="white"/>
<path d="M41.459 8.00278C37.5152 8.07605 32.7677 8.75235 30.01 10.3841C28.232 11.448 26.0461 13.6132 25.3755 16.947C24.7033 20.2801 25.0138 23.5261 25.6763 26.8643C26.3373 30.2011 27.663 33.9365 31.3343 35.8613C35.0063 37.7854 37.4684 38.0133 42.5003 37.9994C47.5322 38.014 49.9943 37.7854 53.6663 35.8613C57.3375 33.9365 58.6625 30.2011 59.3243 26.8636C59.986 23.5268 60.2965 20.2801 59.6251 16.947C58.9544 13.6132 56.7686 11.448 54.9905 10.3848C51.4069 8.43948 47.4653 8.06726 43.5408 8.00278C42.8263 8.00718 42.1193 7.99472 41.4575 8.00278H41.459ZM46.5926 8.89963C48.0484 9.03664 51.6914 9.31581 54.4186 10.919C57.1444 12.5229 58.3639 14.562 58.8727 17.0357C59.3822 19.5093 59.3376 22.6373 58.6321 26.5969C57.9265 30.5565 55.9523 33.8507 53.2748 35.2378C50.5966 36.6248 47.1972 37.359 42.5003 37.2879C37.8033 37.359 34.4039 36.6248 31.7257 35.2378C29.0482 33.8507 27.0741 30.5557 26.3685 26.5969C25.6629 22.6373 25.6183 19.5093 26.1278 17.0357C26.6366 14.562 27.8554 12.5229 30.5819 10.919C33.3084 9.31581 36.9514 9.03664 38.4079 8.89963C41.1262 8.67688 43.9077 8.66003 46.5926 8.89963ZM41.5971 9.58838C39.3615 9.61549 36.97 9.88586 35.3323 10.2332C33.4607 10.6288 32.8212 10.7695 31.2073 11.722C29.5933 12.6746 27.6096 14.6133 27.0005 17.5991C26.3915 20.585 26.6737 23.4931 27.2738 26.4818C27.874 29.4713 29.0772 32.8169 32.409 34.5402C37.9467 37.3854 47.1927 37.2725 52.5915 34.5402C55.9234 32.8169 57.1258 29.4706 57.7267 26.4818C58.3275 23.4931 58.609 20.585 58 17.5991C57.391 14.6133 55.4064 12.6746 53.7933 11.722C52.1793 10.7695 51.5399 10.6296 49.6682 10.2324C48.0305 9.88586 45.6382 9.61549 43.4034 9.58764C42.784 9.59277 42.1705 9.58252 41.5971 9.58838ZM45.9933 11.0245C46.6008 11.0802 47.651 11.1659 48.8379 11.3916C49.0139 11.4275 49.1127 11.4832 49.074 11.648C47.1653 16.2172 45.125 20.7879 42.9979 25.3571C42.7112 25.9623 42.3487 25.9858 42.0546 25.4685C39.9082 20.8627 37.8509 16.2546 35.9265 11.6488C35.8879 11.4832 35.9866 11.4275 36.1627 11.3923C37.3495 11.1659 38.3997 11.0802 39.0073 11.0238C41.3283 10.8355 43.7087 10.8237 45.9933 11.0245ZM34.2427 11.8891C34.3512 11.8854 34.3876 11.9565 34.3839 12.0906L34.3854 12.0862V19.7746C34.3854 22.2006 34.7872 23.3392 35.8752 25.3176L41.0891 34.7886C41.2666 35.1227 40.9777 35.1008 40.6643 35.1044C37.5553 34.9725 35.1756 34.3768 33.2364 33.3891C30.9228 32.2109 29.2183 29.4134 28.6085 26.0517C27.9995 22.6893 27.9601 20.0332 28.4005 17.9333C28.8402 15.8326 29.8934 14.1004 32.2478 12.7383C32.8346 12.3991 33.4718 12.1294 34.1157 11.914C34.1564 11.8998 34.1989 11.8911 34.242 11.8884L34.2427 11.8891ZM50.7578 11.8891C50.8008 11.8916 50.8433 11.9 50.884 11.914C51.5287 12.1294 52.1652 12.3991 52.7527 12.7383C55.1071 14.1004 56.1603 15.8326 56.6 17.9333C57.0404 20.0332 57.001 22.6893 56.392 26.0517C55.783 29.4134 54.077 32.2109 51.7649 33.3891C49.8249 34.3768 47.4445 34.9725 44.3363 35.1044C44.0228 35.1008 43.7339 35.1227 43.9122 34.7886L49.1253 25.3176C50.2126 23.3392 50.6152 22.2006 50.6152 19.7746V12.0862L50.6167 12.0906C50.613 11.9565 50.6493 11.8862 50.7578 11.8891Z" fill="#171718"/>
</svg>
