<svg width="85" height="45" viewBox="0 0 85 45" fill="none" xmlns="http://www.w3.org/2000/svg">
<rect width="85" height="45" fill="white"/>
<path d="M42.7905 14.4276L28.6605 31.2019L23.9478 32.7755L40.5842 13L42.7905 14.4276Z" fill="#171718"/>
<path d="M43 14.4276L57.1381 31.2019L61.8508 32.7755L45.2144 13L43 14.4276Z" fill="#171718"/>
<path d="M42.7903 14.4276L45.0047 13H40.584L42.7903 14.4276Z" fill="#171718"/>
<path d="M32.4971 16.4066L34.752 13.1377L32.5052 14.9222L32.4971 16.4066Z" fill="#171718"/>
<path d="M30.2992 27.9893L26.9411 29.206C10.913 26.7807 12.0162 21.6057 12.0162 21.6057C11.9837 14.93 34.7523 13.1455 34.7523 13.1455L32.5055 14.93C32.5055 14.93 13.9304 17.6149 14.4658 21.5813C15.0174 25.5316 30.2992 27.9893 30.2992 27.9893Z" fill="#404040"/>
<path d="M32.5133 14.9219V16.4063C32.5133 16.4063 16.9475 17.5662 16.9475 21.4921C16.9475 25.418 29.3012 26.4157 29.3012 26.4157L30.2989 27.9893C30.2989 27.9893 14.4492 26.0588 14.4492 21.5651C14.4492 17.0633 32.5133 14.9219 32.5133 14.9219Z" fill="#171718"/>
<path d="M23.9478 32.7748H30.2665L28.6605 31.2012L23.9478 32.7748Z" fill="#171718"/>
<path d="M42.7907 14.4277V17.5019L30.2586 32.7676L28.6606 31.2021L42.7907 14.4277Z" fill="#404040"/>
<path d="M42.7988 14.4277V17.5019L55.3309 32.7676L56.937 31.2021L42.7988 14.4277Z" fill="#171718"/>
<path d="M61.6491 32.7748H55.3223L56.9364 31.2012L61.6491 32.7748Z" fill="#171718"/>
<path d="M53.0997 16.4066L50.8447 13.1377L53.0916 14.9222L53.0997 16.4066Z" fill="#171718"/>
<path d="M55.2979 27.9893L58.656 29.206C74.6841 26.7807 73.5809 21.6057 73.5809 21.6057C73.6134 14.93 50.8447 13.1455 50.8447 13.1455L53.0916 14.93C53.0916 14.93 71.6666 17.6149 71.1313 21.5813C70.5797 25.5316 55.2979 27.9893 55.2979 27.9893Z" fill="#404040"/>
<path d="M53.084 14.9219V16.4063C53.084 16.4063 68.6497 17.5662 68.6497 21.4921C68.6497 25.418 56.2961 26.4157 56.2961 26.4157L55.2984 27.9893C55.2984 27.9893 71.148 26.0588 71.148 21.5651C71.148 17.0633 53.084 14.9219 53.084 14.9219Z" fill="#171718"/>
<path d="M47.7954 27.2188L49.953 30.1713L48.1199 28.6139L47.7954 27.2188Z" fill="#171718"/>
<path d="M32.0918 28.2166L34.947 27.0566C34.947 27.0566 45.654 27.5028 47.7954 27.2189L48.1199 28.614C48.1199 28.614 43.6343 29.4495 32.0918 28.2166Z" fill="#171718"/>
<path d="M48.1199 28.6143L49.9612 30.1716C49.9612 30.1716 39.8868 30.853 32.6028 29.9202L32.0918 28.2168C32.0918 28.2168 41.9958 29.1334 48.1199 28.6143Z" fill="#171718"/>
</svg>
