<svg width="280" height="80" viewBox="0 0 280 80" fill="none" xmlns="http://www.w3.org/2000/svg">
<path d="M26.56 10.2032L35.04 38.1632H27.44L25.48 31.6832H10.44L8.48 38.1632H0.88L9.36 10.2032H26.56ZM20.84 16.3232H15.08L12.44 25.2032H23.48L20.84 16.3232ZM59.0003 10.0432H66.6003L58.1203 38.0032H42.6403L34.1603 10.0432H41.7603L48.3603 31.9232H52.4003L59.0003 10.0432ZM100.821 10.0432V16.1632H88.3409V38.0032H80.8609V16.1632H68.3809V10.0432H100.821ZM126.997 10.0432C134.797 10.0432 137.237 13.6432 137.237 21.3232V27.1632C137.237 35.1232 133.757 38.0032 125.957 38.0032H115.557C107.757 38.0032 104.317 35.1232 104.317 27.1632V21.3232C104.317 13.6432 106.757 10.0432 114.557 10.0432H126.997ZM129.557 27.5632V20.9232C129.557 17.9632 128.597 16.1632 125.837 16.1632H115.717C112.957 16.1632 111.997 17.9632 111.997 20.9232V27.5632C111.997 31.1632 113.157 31.9232 115.757 31.9232H125.797C128.397 31.9232 129.557 31.1632 129.557 27.5632ZM8.82 75.0363H2.65263V51.8258H8.82V75.0363ZM37.0931 51.8258H47.0404V75.0032H40.8731V57.1974L31.4894 75.0032H29.6657L20.282 57.1974V75.0032H14.1146V51.8258H24.062L30.561 64.4258L37.0931 51.8258ZM78.9829 56.899C79.1487 57.7942 79.215 59.6179 79.215 60.7453C79.215 61.8395 79.1487 63.5637 79.016 64.5584C78.4192 68.3716 76.4629 69.9632 71.3234 69.9632H58.4913V75.0032H52.3239V51.8258H71.3234C75.9324 51.8258 78.2534 53.2184 78.9829 56.899ZM72.8487 62.5026V58.9879C72.8487 57.8274 71.9202 56.899 70.7597 56.899H58.4913V64.5916H70.7597C71.9202 64.5916 72.8487 63.6632 72.8487 62.5026ZM101.841 51.8258C108.307 51.8258 110.33 54.81 110.33 61.1763V66.0174C110.33 72.6158 107.445 75.0032 100.979 75.0032H92.3582C85.8924 75.0032 83.0408 72.6158 83.0408 66.0174V61.1763C83.0408 54.81 85.0635 51.8258 91.5293 51.8258H101.841ZM103.963 66.349V60.8448C103.963 58.3911 103.168 56.899 100.88 56.899H92.4908C90.2029 56.899 89.4072 58.3911 89.4072 60.8448V66.349C89.4072 69.3332 90.3687 69.9632 92.524 69.9632H100.847C103.002 69.9632 103.963 69.3332 103.963 66.349ZM141.803 64.5584C141.438 66.9458 140.51 68.4711 138.62 69.2669L142.002 75.0363H135.006L132.055 69.9632H121.278V75.0032H115.111V51.8258H134.11C138.719 51.8258 141.04 53.2184 141.77 56.899C141.936 57.7942 142.002 59.6179 142.002 60.7453C142.002 61.8395 141.969 63.5637 141.803 64.5584ZM121.278 56.899V64.5916H133.547C134.707 64.5916 135.636 63.63 135.636 62.5026V58.9879C135.636 57.8274 134.707 56.899 133.547 56.899H121.278ZM171.716 51.8258V56.899H161.37V75.0032H155.17V56.899H144.825V51.8258H171.716Z" fill="white"/>
<path d="M230.96 30.3552C238.256 33.6192 238.256 40.1472 238.256 45.3952C238.256 51.2192 230.896 53.9072 227.568 55.0592L201.84 64.2752H238.256V74.0032H186.352V58.7072L222.064 45.9712C226.8 44.1792 226.8 39.4432 220.976 39.0592C220.912 39.0592 220.912 39.0592 220.848 39.0592H186.352V29.2672H223.024C226.608 29.2672 229.36 29.6512 230.96 30.3552ZM245.822 34.0672L268.478 29.2672V74.0032H256.51V41.5552L245.822 43.8592V34.0672Z" fill="#171718"/>
<path fill-rule="evenodd" clip-rule="evenodd" d="M170.048 13.4472L170.213 35.7559C170.223 37.1249 169.122 38.2264 167.753 38.2162L145.444 38.0507C144.075 38.0405 145.436 36.9409 145.426 35.5719C145.416 34.203 144.038 33.083 145.407 33.0932L161.732 33.2143L142.761 14.2429L146.24 10.7635L165.211 29.7349L165.09 13.4104C165.08 12.0414 166.2 13.4186 167.569 13.4288C168.938 13.4389 170.038 12.0782 170.048 13.4472Z" fill="#171718"/>
<line x1="186" y1="16.0037" x2="268" y2="16.0037" stroke="white" stroke-width="8"/>
</svg>
