<svg width="36" height="36" viewBox="0 0 36 36" fill="none" xmlns="http://www.w3.org/2000/svg">
<g clip-path="url(#clip0_56_11477)">
<path d="M0.5 26.75C0.5 27.7814 0.909721 28.7705 1.63903 29.4998C2.36834 30.2291 3.35749 30.6389 4.38889 30.6389H31.6111C32.6425 30.6389 33.6317 30.2291 34.361 29.4998C35.0903 28.7705 35.5 27.7814 35.5 26.75V22.8611H0.5V26.75Z" fill="#FFCD05"/>
<path d="M0.5 14.1111H35.5V22.8611H0.5V14.1111Z" fill="#ED1F24"/>
<path d="M31.6111 5.36108H4.38889C3.35749 5.36108 2.36834 5.7708 1.63903 6.50011C0.909721 7.22942 0.5 8.21858 0.5 9.24997L0.5 14.1111H35.5V9.24997C35.5 8.21858 35.0903 7.22942 34.361 6.50011C33.6317 5.7708 32.6425 5.36108 31.6111 5.36108Z" fill="#141414"/>
</g>
<defs>
<clipPath id="clip0_56_11477">
<rect width="35" height="35" fill="white" transform="translate(0.5 0.5)"/>
</clipPath>
</defs>
</svg>
