<svg width="36" height="36" viewBox="0 0 36 36" fill="none" xmlns="http://www.w3.org/2000/svg">
<g clip-path="url(#clip0_56_11483)">
<path d="M32.8788 6.53418H3.12124C1.67353 6.53418 0.5 7.70771 0.5 9.15542V26.8441C0.5 28.2917 1.67353 29.4653 3.12124 29.4653H32.8788C34.3264 29.4653 35.5 28.2918 35.5 26.8441V9.15542C35.5 7.70771 34.3265 6.53418 32.8788 6.53418Z" fill="#F2F2F2"/>
<path d="M18 24.6376C21.6659 24.6376 24.6377 21.6658 24.6377 17.9999C24.6377 14.334 21.6659 11.3622 18 11.3622C14.3341 11.3622 11.3623 14.334 11.3623 17.9999C11.3623 21.6658 14.3341 24.6376 18 24.6376Z" fill="#F2343F"/>
</g>
<defs>
<clipPath id="clip0_56_11483">
<rect width="35" height="35" fill="white" transform="translate(0.5 0.5)"/>
</clipPath>
</defs>
</svg>
