<svg width="36" height="36" viewBox="0 0 36 36" fill="none" xmlns="http://www.w3.org/2000/svg">
<g clip-path="url(#clip0_56_11488)">
<mask id="mask0_56_11488" style="mask-type:luminance" maskUnits="userSpaceOnUse" x="0" y="5" width="36" height="26">
<path d="M33 5.5H3C1.61929 5.5 0.5 6.61929 0.5 8V28C0.5 29.3807 1.61929 30.5 3 30.5H33C34.3807 30.5 35.5 29.3807 35.5 28V8C35.5 6.61929 34.3807 5.5 33 5.5Z" fill="white"/>
</mask>
<g mask="url(#mask0_56_11488)">
<path d="M33 5.5H3C1.61929 5.5 0.5 6.61929 0.5 8V28C0.5 29.3807 1.61929 30.5 3 30.5H33C34.3807 30.5 35.5 29.3807 35.5 28V8C35.5 6.61929 34.3807 5.5 33 5.5Z" fill="white"/>
<mask id="mask1_56_11488" style="mask-type:alpha" maskUnits="userSpaceOnUse" x="0" y="5" width="36" height="26">
<path d="M33 5.5H3C1.61929 5.5 0.5 6.61929 0.5 8V28C0.5 29.3807 1.61929 30.5 3 30.5H33C34.3807 30.5 35.5 29.3807 35.5 28V8C35.5 6.61929 34.3807 5.5 33 5.5Z" fill="white"/>
</mask>
<g mask="url(#mask1_56_11488)">
<path fill-rule="evenodd" clip-rule="evenodd" d="M0.5 30.5H35.5V5.5H0.5V30.5Z" fill="#DC3526"/>
</g>
<path d="M5.38932 8.91016L6.39145 11.0333L8.61652 11.373L7.00292 13.0376L7.3766 15.3646L5.38932 14.2605L3.40204 15.3646L3.77571 13.0376L2.16211 11.373L4.38718 11.0333L5.38932 8.91016Z" fill="#FCBE1F"/>
<path d="M10.4009 7.80615L10.7915 8.63843L11.6747 8.77431L11.0293 9.43674L11.1822 10.3539L10.4009 9.91233L9.61953 10.3539L9.77239 9.43674L9.12695 8.77431L10.0102 8.63843L10.4009 7.80615Z" fill="#FCBE1F"/>
<path d="M11.0798 10.8296L11.4705 11.6789L12.3537 11.8147L11.7083 12.4602L11.8611 13.3774L11.0798 12.9528L10.2985 13.3774L10.4513 12.4602L9.80591 11.8147L10.6891 11.6789L11.0798 10.8296Z" fill="#FCBE1F"/>
<path d="M10.4009 13.9209L10.7915 14.7532L11.6747 14.8891L11.0293 15.5515L11.1822 16.4687L10.4009 16.0271L9.61953 16.4687L9.77239 15.5515L9.12695 14.8891L10.0102 14.7532L10.4009 13.9209Z" fill="#FCBE1F"/>
</g>
</g>
<defs>
<clipPath id="clip0_56_11488">
<rect width="35" height="35" fill="white" transform="translate(0.5 0.5)"/>
</clipPath>
</defs>
</svg>
