<svg width="36" height="36" viewBox="0 0 36 36" fill="none" xmlns="http://www.w3.org/2000/svg">
<g clip-path="url(#clip0_56_11505)">
<path d="M35.5 26.75C35.5 27.7814 35.0903 28.7705 34.361 29.4998C33.6317 30.2291 32.6425 30.6389 31.6111 30.6389H4.38889C3.35749 30.6389 2.36834 30.2291 1.63903 29.4998C0.909721 28.7705 0.5 27.7814 0.5 26.75V9.24997C0.5 8.21858 0.909721 7.22942 1.63903 6.50011C2.36834 5.7708 3.35749 5.36108 4.38889 5.36108H31.6111C32.6425 5.36108 33.6317 5.7708 34.361 6.50011C35.0903 7.22942 35.5 8.21858 35.5 9.24997V26.75Z" fill="#EEEEEE"/>
<path d="M21.3454 13.2215C20.078 12.3343 18.5102 11.9868 16.9866 12.2556C15.4631 12.5243 14.1088 13.3873 13.2215 14.6546C12.8025 15.2888 12.6476 16.0616 12.7898 16.8083C12.9319 17.555 13.3599 18.2168 13.9826 18.6528C14.6053 19.0888 15.3736 19.2645 16.1239 19.1425C16.8742 19.0206 17.5473 18.6107 18 18C18.2197 17.6862 18.4991 17.4188 18.8221 17.213C19.1452 17.0072 19.5056 16.8671 19.8829 16.8006C20.2601 16.7341 20.6467 16.7426 21.0207 16.8255C21.3947 16.9084 21.7486 17.0642 22.0624 17.2839C22.3761 17.5037 22.6436 17.783 22.8493 18.1061C23.0551 18.4292 23.1953 18.7896 23.2618 19.1668C23.3283 19.5441 23.3198 19.9307 23.2369 20.3047C23.1539 20.6786 22.9982 21.0326 22.7784 21.3464C23.2179 20.7188 23.5294 20.0108 23.6952 19.2629C23.861 18.5149 23.8779 17.7416 23.7448 16.9871C23.6117 16.2326 23.3313 15.5117 22.9196 14.8656C22.5079 14.2195 21.973 13.6608 21.3454 13.2215Z" fill="#C60C30"/>
<path d="M22.0622 17.2846C21.4287 16.8409 20.6448 16.6671 19.8831 16.8012C19.1214 16.9354 18.4441 17.3667 18.0003 18.0002C17.5488 18.6141 16.875 19.027 16.123 19.1506C15.371 19.2741 14.6005 19.0986 13.9763 18.6614C13.352 18.2243 12.9236 17.5602 12.7826 16.8113C12.6417 16.0624 12.7993 15.288 13.2218 14.6538C12.7696 15.2807 12.4464 15.9912 12.2711 16.744C12.0958 17.4969 12.0719 18.2771 12.2008 19.0393C12.3296 19.8014 12.6087 20.5304 13.0217 21.1838C13.4347 21.8372 13.9735 22.402 14.6067 22.8453C15.2399 23.2887 15.9549 23.6017 16.7102 23.7664C17.4655 23.931 18.2459 23.9438 19.0062 23.8042C19.7665 23.6646 20.4914 23.3753 21.1389 22.953C21.7864 22.5308 22.3435 21.9841 22.7778 21.3446C22.9976 21.0311 23.1534 20.6774 23.2364 20.3036C23.3194 19.9299 23.3279 19.5434 23.2614 19.1663C23.195 18.7893 23.0549 18.429 22.8491 18.1062C22.6433 17.7833 22.376 17.5041 22.0622 17.2846Z" fill="#003478"/>
<path d="M24.158 25.3617L26.0324 23.1275L26.7772 23.7527L24.9027 25.9868L24.158 25.3617ZM26.6566 22.3838L28.5311 20.1506L29.2758 20.7757L27.4013 23.0089L26.6566 22.3838ZM25.6474 26.6139L27.5219 24.3807L28.2666 25.0059L26.3922 27.2391L25.6474 26.6139ZM28.148 23.6331L30.0244 21.3999L30.7691 22.026L28.8927 24.2582L28.148 23.6331ZM27.1359 27.8642L29.0123 25.631L29.7561 26.2562L27.8806 28.4893L27.1359 27.8642ZM29.6355 24.8843L31.509 22.6482L32.2547 23.2734L30.3812 25.5095L29.6355 24.8843ZM29.6394 11.1157L30.3841 10.4906L32.2605 12.7257L31.5148 13.3509L29.6394 11.1157ZM27.1388 8.1349L27.8836 7.50977L29.758 9.7449L29.0123 10.3691L27.1388 8.1349ZM25.6484 9.38713L26.3931 8.76199L30.7681 13.975L30.0234 14.6002L25.6484 9.38713ZM24.159 10.6355L24.9047 10.0103L26.7781 12.2445L26.0334 12.8687L24.159 10.6355ZM26.6576 13.6153L27.4023 12.9902L29.2787 15.2234L28.5349 15.8485L26.6576 13.6153ZM6.72217 20.7748L7.46689 20.1496L11.8409 25.3637L11.0952 25.9888L6.72217 20.7748ZM5.23467 22.025L5.97842 21.4009L7.85384 23.635L7.10814 24.2602L5.23467 22.025ZM7.73036 25.0059L8.47509 24.3807L10.3515 26.6139L9.60675 27.2391L7.73036 25.0059ZM3.74328 23.2743L4.488 22.6492L8.863 27.8623L8.11731 28.4874L3.74328 23.2743ZM3.74231 12.7238L8.11537 7.51074L8.86106 8.1349L4.48606 13.3489L3.74231 12.7238ZM5.23175 13.975L9.60675 8.76102L10.3515 9.38615L5.97648 14.5992L5.23175 13.975ZM6.72217 15.2243L11.0972 10.0103L11.8419 10.6355L7.46689 15.8495L6.72217 15.2243Z" fill="#292F33"/>
</g>
<defs>
<clipPath id="clip0_56_11505">
<rect width="35" height="35" fill="white" transform="translate(0.5 0.5)"/>
</clipPath>
</defs>
</svg>
