<svg width="36" height="36" viewBox="0 0 36 36" fill="none" xmlns="http://www.w3.org/2000/svg">
<g clip-path="url(#clip0_56_11512)">
<mask id="mask0_56_11512" style="mask-type:luminance" maskUnits="userSpaceOnUse" x="0" y="5" width="36" height="26">
<path d="M33 5.5H3C1.61929 5.5 0.5 6.61929 0.5 8V28C0.5 29.3807 1.61929 30.5 3 30.5H33C34.3807 30.5 35.5 29.3807 35.5 28V8C35.5 6.61929 34.3807 5.5 33 5.5Z" fill="white"/>
</mask>
<g mask="url(#mask0_56_11512)">
<path d="M33 5.5H3C1.61929 5.5 0.5 6.61929 0.5 8V28C0.5 29.3807 1.61929 30.5 3 30.5H33C34.3807 30.5 35.5 29.3807 35.5 28V8C35.5 6.61929 34.3807 5.5 33 5.5Z" fill="white"/>
<mask id="mask1_56_11512" style="mask-type:alpha" maskUnits="userSpaceOnUse" x="0" y="5" width="36" height="26">
<path d="M33 5.5H3C1.61929 5.5 0.5 6.61929 0.5 8V28C0.5 29.3807 1.61929 30.5 3 30.5H33C34.3807 30.5 35.5 29.3807 35.5 28V8C35.5 6.61929 34.3807 5.5 33 5.5Z" fill="white"/>
</mask>
<g mask="url(#mask1_56_11512)">
<path fill-rule="evenodd" clip-rule="evenodd" d="M35.5 5.5H0.5V7.16666H35.5V5.5ZM35.5 8.83334H0.5V10.5H35.5V8.83334ZM0.5 12.1667H35.5V13.8333H0.5V12.1667ZM35.5 15.5H0.5V17.1667H35.5V15.5ZM0.5 18.8334H35.5V20.5H0.5V18.8334ZM35.5 22.1666H0.5V23.8334H35.5V22.1666ZM0.5 25.5H35.5V27.1666H0.5V25.5ZM35.5 28.8334H0.5V30.5H35.5V28.8334Z" fill="#D02F44"/>
<path d="M15.5 5.5H0.5V17.1667H15.5V5.5Z" fill="#46467F"/>
<g filter="url(#filter0_d_56_11512)">
<path fill-rule="evenodd" clip-rule="evenodd" d="M3.83367 7.99983C3.83367 8.46007 3.46057 8.83317 3.00033 8.83317C2.54009 8.83317 2.16699 8.46007 2.16699 7.99983C2.16699 7.5396 2.54009 7.1665 3.00033 7.1665C3.46057 7.1665 3.83367 7.5396 3.83367 7.99983ZM7.16699 7.99983C7.16699 8.46007 6.7939 8.83317 6.33367 8.83317C5.87343 8.83317 5.50033 8.46007 5.50033 7.99983C5.50033 7.5396 5.87343 7.1665 6.33367 7.1665C6.7939 7.1665 7.16699 7.5396 7.16699 7.99983ZM9.66699 8.83317C10.1272 8.83317 10.5003 8.46007 10.5003 7.99983C10.5003 7.5396 10.1272 7.1665 9.66699 7.1665C9.20675 7.1665 8.83367 7.5396 8.83367 7.99983C8.83367 8.46007 9.20675 8.83317 9.66699 8.83317ZM13.8336 7.99983C13.8336 8.46007 13.4606 8.83317 13.0003 8.83317C12.5401 8.83317 12.167 8.46007 12.167 7.99983C12.167 7.5396 12.5401 7.1665 13.0003 7.1665C13.4606 7.1665 13.8336 7.5396 13.8336 7.99983ZM4.66699 10.4998C5.12723 10.4998 5.50033 10.1267 5.50033 9.6665C5.50033 9.20627 5.12723 8.83317 4.66699 8.83317C4.20675 8.83317 3.83367 9.20627 3.83367 9.6665C3.83367 10.1267 4.20675 10.4998 4.66699 10.4998ZM8.83367 9.6665C8.83367 10.1267 8.46057 10.4998 8.00033 10.4998C7.54009 10.4998 7.16699 10.1267 7.16699 9.6665C7.16699 9.20627 7.54009 8.83317 8.00033 8.83317C8.46057 8.83317 8.83367 9.20627 8.83367 9.6665ZM11.3337 10.4998C11.7939 10.4998 12.167 10.1267 12.167 9.6665C12.167 9.20627 11.7939 8.83317 11.3337 8.83317C10.8734 8.83317 10.5003 9.20627 10.5003 9.6665C10.5003 10.1267 10.8734 10.4998 11.3337 10.4998ZM13.8336 11.3332C13.8336 11.7934 13.4606 12.1665 13.0003 12.1665C12.5401 12.1665 12.167 11.7934 12.167 11.3332C12.167 10.8729 12.5401 10.4998 13.0003 10.4998C13.4606 10.4998 13.8336 10.8729 13.8336 11.3332ZM9.66699 12.1665C10.1272 12.1665 10.5003 11.7934 10.5003 11.3332C10.5003 10.8729 10.1272 10.4998 9.66699 10.4998C9.20675 10.4998 8.83367 10.8729 8.83367 11.3332C8.83367 11.7934 9.20675 12.1665 9.66699 12.1665ZM7.16699 11.3332C7.16699 11.7934 6.7939 12.1665 6.33367 12.1665C5.87343 12.1665 5.50033 11.7934 5.50033 11.3332C5.50033 10.8729 5.87343 10.4998 6.33367 10.4998C6.7939 10.4998 7.16699 10.8729 7.16699 11.3332ZM3.00033 12.1665C3.46057 12.1665 3.83367 11.7934 3.83367 11.3332C3.83367 10.8729 3.46057 10.4998 3.00033 10.4998C2.54009 10.4998 2.16699 10.8729 2.16699 11.3332C2.16699 11.7934 2.54009 12.1665 3.00033 12.1665ZM5.50033 12.9998C5.50033 13.4601 5.12723 13.8332 4.66699 13.8332C4.20675 13.8332 3.83367 13.4601 3.83367 12.9998C3.83367 12.5396 4.20675 12.1665 4.66699 12.1665C5.12723 12.1665 5.50033 12.5396 5.50033 12.9998ZM8.00033 13.8332C8.46057 13.8332 8.83367 13.4601 8.83367 12.9998C8.83367 12.5396 8.46057 12.1665 8.00033 12.1665C7.54009 12.1665 7.16699 12.5396 7.16699 12.9998C7.16699 13.4601 7.54009 13.8332 8.00033 13.8332ZM12.167 12.9998C12.167 13.4601 11.7939 13.8332 11.3337 13.8332C10.8734 13.8332 10.5003 13.4601 10.5003 12.9998C10.5003 12.5396 10.8734 12.1665 11.3337 12.1665C11.7939 12.1665 12.167 12.5396 12.167 12.9998ZM13.0003 15.4998C13.4606 15.4998 13.8336 15.1267 13.8336 14.6665C13.8336 14.2063 13.4606 13.8332 13.0003 13.8332C12.5401 13.8332 12.167 14.2063 12.167 14.6665C12.167 15.1267 12.5401 15.4998 13.0003 15.4998ZM10.5003 14.6665C10.5003 15.1267 10.1272 15.4998 9.66699 15.4998C9.20675 15.4998 8.83367 15.1267 8.83367 14.6665C8.83367 14.2063 9.20675 13.8332 9.66699 13.8332C10.1272 13.8332 10.5003 14.2063 10.5003 14.6665ZM6.33367 15.4998C6.7939 15.4998 7.16699 15.1267 7.16699 14.6665C7.16699 14.2063 6.7939 13.8332 6.33367 13.8332C5.87343 13.8332 5.50033 14.2063 5.50033 14.6665C5.50033 15.1267 5.87343 15.4998 6.33367 15.4998ZM3.83367 14.6665C3.83367 15.1267 3.46057 15.4998 3.00033 15.4998C2.54009 15.4998 2.16699 15.1267 2.16699 14.6665C2.16699 14.2063 2.54009 13.8332 3.00033 13.8332C3.46057 13.8332 3.83367 14.2063 3.83367 14.6665Z" fill="url(#paint0_linear_56_11512)"/>
</g>
</g>
</g>
</g>
<defs>
<filter id="filter0_d_56_11512" x="2.16699" y="7.1665" width="11.6665" height="36.9048" filterUnits="userSpaceOnUse" color-interpolation-filters="sRGB">
<feFlood flood-opacity="0" result="BackgroundImageFix"/>
<feColorMatrix in="SourceAlpha" type="matrix" values="0 0 0 0 0 0 0 0 0 0 0 0 0 0 0 0 0 0 127 0" result="hardAlpha"/>
<feOffset dy="28.5714"/>
<feColorMatrix type="matrix" values="0 0 0 0 0 0 0 0 0 0 0 0 0 0 0 0 0 0 0.06 0"/>
<feBlend mode="normal" in2="BackgroundImageFix" result="effect1_dropShadow_56_11512"/>
<feBlend mode="normal" in="SourceGraphic" in2="effect1_dropShadow_56_11512" result="shape"/>
</filter>
<linearGradient id="paint0_linear_56_11512" x1="2.16699" y1="7.1665" x2="2.16699" y2="15.4998" gradientUnits="userSpaceOnUse">
<stop stop-color="white"/>
<stop offset="1" stop-color="#F0F0F0"/>
</linearGradient>
<clipPath id="clip0_56_11512">
<rect width="35" height="35" fill="white" transform="translate(0.5 0.5)"/>
</clipPath>
</defs>
</svg>
